<?xml version="1.0" encoding="utf-8"?>
<!-- Generator: Adobe Illustrator 25.3.1, SVG Export Plug-In . SVG Version: 6.00 Build 0)  -->
<svg version="1.1" id="Layer_1" xmlns="http://www.w3.org/2000/svg" xmlns:xlink="http://www.w3.org/1999/xlink" x="0px" y="0px"
	 viewBox="0 0 1080 1080" style="enable-background:new 0 0 1080 1080;" xml:space="preserve">
<style type="text/css">
	.st0{clip-path:url(#SVGID_2_);fill:#FCE2C3;}
	.st1{clip-path:url(#SVGID_2_);}
	.st2{fill:#391514;}
	.st3{fill:#FBCFCA;}
	.st4{fill:#FAC0BC;}
	.st5{opacity:0.3;fill:#FAC0BC;}
	.st6{fill:#F8B3B1;}
	.st7{fill:#603A17;}
	.st8{fill:#563114;}
	.st9{fill:#544842;}
	.st10{fill:#3B7373;}
	.st11{fill:#316765;}
	.st12{fill:#211A18;}
	.st13{fill:#CF7973;}
	.st14{fill:#FFFFFF;}
	.st15{fill:#EB8D8C;}
	.st16{fill:#FBB03C;}
</style>
<g>
	<g>
		<defs>
			<circle id="SVGID_1_" cx="536.47" cy="542.19" r="415.14"/>
		</defs>
		<clipPath id="SVGID_2_">
			<use xlink:href="#SVGID_1_"  style="overflow:visible;"/>
		</clipPath>
		<circle class="st0" cx="536.47" cy="542.19" r="415.14"/>
		<g class="st1">
			<g>
				<g>
					<path class="st3" d="M1134.24,1531.94c-10.18-25.52-20.38-51.03-30.58-76.56c-9.77-24.48-18.31-45.57-31.17-68.64
						c-5.29-9.47-12.49-21.86-18.46-31.27c-28.64-52.66-57.27-105.32-85.91-157.99c-18.12-33.32-36.23-66.63-54.35-99.95
						c-11.9-21.88-23.83-43.84-32.9-67.04c-11.23-28.75-17.92-59.05-24-89.32c-4.47-22.27-8.65-44.64-13.14-66.93
						c-13.06,5.8-26.1,11.67-39.06,17.71c-27.82,12.96-55.47,26.48-83.43,39.26c21.18,61.8,44.32,122.67,76.2,179.61
						c56.95,101.71,141.39,181.83,210.22,275.92c2.49,3.41,1.39,13.63,1.62,17.97c0.75,14.08-0.42,28.14,1.3,42.17
						c1.74,14.18,5.03,28.18,9.8,41.65c2.16,6.1,8.03,11.7,14.27,6.22c0.56-0.35,1.09-0.76,1.6-1.33c6.16-6.55,6.19-15.51,5.8-23.94
						c-0.43-9.61,0.06-18.71,4.25-27.52c1.14-2.38,3.06-4.63,5.65-5.13c1.57-0.32,3.21,0.07,4.74,0.58
						c5.14,1.75,9.02,4.94,12.15,8.88c1.65,2.06,3.1,4.33,4.41,6.71c1.27,2.25,2.4,4.58,3.5,6.93c1.37,2.92,2.65,5.85,3.99,8.63
						c0.27,0.57,0.55,1.13,0.82,1.68c0.25,0.5,0.51,1.02,0.76,1.52c1.64,3.27,3.28,6.52,4.94,9.78c2.98,5.94,5.98,11.87,8.97,17.82
						c2.61,5.18,5.23,10.36,7.83,15.54c4.58,9.05,9.47,19.2,17.65,25.61C1127.83,1545.29,1137.59,1540.35,1134.24,1531.94z"/>
				</g>
				<g>
					<path class="st3" d="M370.26,716.66c-91.37-0.01-178.86,288.49-181.1,292.23c-1.9,3.22-183.65,270.81-184.19,271.45
						c0,0-61.69,62.06-76.76,80.74c-10.16,12.65-20.79,25.74-27.28,40.67c-6.89,15.83-11.11,32.52-15.61,49.14
						c-0.71,2.6-1.43,5.26-1.11,7.95c0.59,4.81,5.87,9,10.7,6.82c10.5-4.72,14.12-18.48,17.19-28.48c2.85-9.31,5.19-18.87,9.59-27.6
						c4.31-8.6,10.82-14.91,18.52-20.63c5.55-4.13,10.9-8.44,16.57-12.46c2.16-1.54,4.43-3.08,6.81-4.29
						c3.22-1.66,6.66-2.76,10.29-2.49c3.03,0.24,7.43,1.7,9.21,4.36c1.93,2.9-0.19,6.33-1.41,9.02c-1.47,3.2-3.6,6.05-5.8,8.8
						c-3.76,4.67-8.13,9.28-10.4,14.88c-0.39,0.94-0.72,1.92-0.99,2.93c-2.77,10.7,5.34,26.13,17.3,16.44
						c2.57-2.07,4.57-4.74,6.59-7.35c9.64-12.4,21.96-22.82,29.21-36.82c4.62-8.93,8.23-18.3,11.81-27.66
						c6.7-17.48,9.61-28.01,10.88-36.38l0.01-0.04l0.21-0.32c1.42-1.13,166.9-149.48,264.43-282.43
						c22.85-31.14,78.85-153.7,105.96-242.64C416.47,774.16,387.3,734.36,370.26,716.66z"/>
				</g>
				<path class="st3" d="M501.98,510.97c27.62,14.11,55.76,27.17,84.07,39.85c8.53,3.81,17.14,7.64,26.27,9.55l1.89,51.68
					l1.63,44.29c-1.68,1.11-3.45,2.01-5.28,2.79c-8.37,21.24-29.06,36.28-53.27,36.28c-26.06,0-48.04-17.42-54.97-41.25
					c-0.53-0.16-1.05-0.32-1.58-0.48c-0.01-2.24-0.02-4.47-0.03-6.71c-0.44-2.87-0.68-5.82-0.68-8.82c0-2.82,0.21-5.59,0.61-8.31
					c-0.02-3.86-0.03-7.72-0.05-11.58c-0.06-14.76-0.13-29.55-1.66-44.24c-0.48-4.5-1.07-8.99-1.79-13.45
					c-1.72-11.12-4.08-22.14-6.43-33.18c-1.93-9.06-3.86-18.14-5.8-27.19C490.33,505.12,495.43,507.62,501.98,510.97z"/>
				<path class="st9" d="M669.38,422.01c-2.93,35.92-18.61,70.84-44.26,96.15c-11.73,11.58-25.54,21.19-40.9,27.17
					c-16.86,6.56-35.25,8.6-53.32,7.66c-10.67-0.55-21.42-2.17-31.21-6.43c-11.74-5.1-21.55-13.75-30.69-22.71
					c-15.62-15.32-30.03-32.11-40.71-51.2c-10.69-19.09-17.55-40.64-17.48-62.52c0.02-7.43,0.87-14.97,3.74-21.81
					c3.83-9.12,10.96-16.41,18.27-23.07c24.15-22,52.49-40.04,83.97-48.77c32.56-9.03,66.96-7.81,100.73-6.53
					c8.54,0.33,16.34,2,23.21,7.36c5.61,4.39,8.69,11.8,11.76,18.05c8.46,17.22,14.04,35.88,16.29,54.94
					C670.01,400.82,670.24,411.45,669.38,422.01z"/>
				<g>
					<path class="st4" d="M614.22,612.06c-31.61-7.05-62.19-18.6-90.15-34.82c-8.89-5.15-18.12-10.67-26.93-16.66
						c-1.72-11.12-4.08-22.14-6.43-33.18c-1.93-9.06-3.86-18.14-5.8-27.19c5.42,4.92,10.51,7.42,17.07,10.77
						c27.62,14.11,55.76,27.17,84.07,39.85c8.53,3.81,17.13,7.64,26.27,9.55L614.22,612.06z"/>
				</g>
				<path class="st3" d="M665.6,405.11c-1.98-7.99-4.4-15.85-7.2-23.51c-8.82-24.16-25.14-46.41-46.89-61.11
					c-41.77-28.2-100.13-21.29-133.81,15.83c-7.99,8.8-14.46,18.86-19.05,29.7c-11.34,26.57-11.93,55.17-5.75,82.7
					c5.42,24.35,16.16,47.88,29.39,68.49c8.15,12.67,17.58,24.6,28.77,34.89c6.4,5.89,13.46,11.21,20.98,15.73
					c15.12,9.08,32.18,14.92,49.87,15.5c15.99,0.52,32.27-3.69,45.76-12.11c15.21-9.5,24.42-24.13,31.02-40.17
					C674.93,491.51,675.89,446.49,665.6,405.11z"/>
				<g>
					<g>
						<path class="st3" d="M489.61,508.76c-15.19,7.61-34.43,6.5-48.54-3c-11.92-8.01-19.72-21.75-20.81-36.04
							c-0.19-2.59-0.16-5.19,0.09-7.82c0.45-4.56,1.63-9.09,3.79-13.12c5.41-9.94,17.18-15.81,28.45-14.9
							c11.29,0.92,21.68,8.22,27.07,18.17l3.82,21.8L489.61,508.76z"/>
					</g>
				</g>
				<path class="st9" d="M537.26,374.98c25.51-4.81,51.08-10.5,75.24-19.54c19.63-7.34,41.36-21.46,46.62-42.69
					c6.57-26.56-15.75-46.95-37.98-57.36c-43.41-20.33-97.04-16.74-136.67,10.65c-24.05,16.63-42.15,41.36-50.45,68.97
					c-4.76,15.84-6.75,39.79,11.9,47.15c21.67,8.54,48.47,0.53,70.45-3.38C523.31,377.55,530.28,376.3,537.26,374.98z"/>
				<path class="st9" d="M390.74,380.55c2.22-16.44,9.48-31.61,22.87-40.14c19.44-12.37,48.84-8.89,60.65,12.26
					c7.71,13.82,7.84,31.43,5.75,46.71c-0.98,7.15-2.87,14.3-6.7,20.49c-2.56,4.14-11.23,14.88-17.03,14.03
					c-1.94-0.28-3.95-0.54-5.61-0.68c-0.34-0.03-0.67-0.04-1-0.05c-5.93,0.02-11.46,1.51-16.58,4.49c-3.83,2.06-6.9,4.89-9.22,8.46
					c-7.29,7.96-18.26-5.79-22.12-11.6C392.39,420.48,388.16,399.66,390.74,380.55z"/>
				<path class="st10" d="M770.34,977.6c-0.23,0.1-0.45,0.21-0.7,0.31c7,116.88,11.09,349.94,20.03,448.35
					c-136.41-8.41-338.33-0.76-458.25-15.35c-3.24-59.96-0.03-201.77,16.48-389.41c1.6-18.43,3.48-37.34,5.62-56.69
					c0.06-0.6,0.13-1.2,0.19-1.82c-0.08-0.05-0.16-0.11-0.24-0.16c-17.78-12.14-37.6-23.06-57.47-33.79
					c-27.66-14.94-55.44-29.51-78.03-46.46c-1.98-1.49,26.24-49.93,27.47-52.48c38.51-80.19,104.99-165.18,196.52-184.8
					c5.38-1.15,58.02-7.15,58.12-9.53c-0.03,0.79-0.05,1.59-0.05,2.38c0,31.64,25.62,57.26,57.26,57.26
					c31.62,0,57.24-25.62,57.24-57.26c0-0.76-0.02-1.52-0.05-2.29c48,9.76,93.8,31.44,130.98,63.04
					c33.77,28.72,60.64,65.25,78.36,105.83c3.31,7.52,6.35,15.14,9.22,22.83c11.9,31.98,21.13,64.84,31.1,97.43
					c-11.98,8.85-25.18,17.37-39.12,25.41C807.63,960.44,789.09,969.66,770.34,977.6z"/>
				<path class="st11" d="M768.85,870.18c2.11,35.77-0.44,71.67,1.5,107.42c18.74-7.95,37.28-17.16,54.68-27.18
					c-8.4-8.81-15.69-18.69-21.59-29.39c-14.11-25.56-19.94-54.71-27.72-82.85c-7.8-28.14-17.9-54.96-38.97-75.19
					C758.64,793.81,766.61,832.46,768.85,870.18z"/>
				<g>
					<g>
						<path class="st12" d="M552.16,399.17c2.26-0.23,4.54-0.05,6.8,0.13c4.01,0.32,8.01,0.65,12.02,0.97
							c1.33,0.11,2.99,0.04,3.57-1.16c0.29-0.59,0.2-1.31-0.06-1.92c-0.97-2.31-3.81-3.09-6.3-3.41
							c-6.17-0.78-12.69-0.35-18.46,2.09c-1.13,0.47-7.58,3.42-7.12,4.93C543.01,402.16,550.86,399.31,552.16,399.17z"/>
						<path class="st12" d="M639.53,396.46c-2.27-0.07-4.53,0.28-6.77,0.63c-3.97,0.62-7.94,1.24-11.91,1.85
							c-1.32,0.21-2.97,0.26-3.64-0.89c-0.33-0.57-0.29-1.29-0.08-1.92c0.8-2.37,3.58-3.37,6.03-3.86
							c6.09-1.23,12.63-1.28,18.56,0.73c1.16,0.39,7.81,2.86,7.47,4.4C648.88,398.76,640.84,396.49,639.53,396.46z"/>
						<g>
							<path class="st13" d="M632.42,501.81c-4.5,11.7-12.75,19.74-22.78,20.58c-9.66,0.79-18.81-5.3-25.14-15.41
								c-4.34-6.94-7.37-15.77-8.33-25.56l1.89-0.15l55.8-4.6l2.07-0.18C636.57,485.77,635.23,494.5,632.42,501.81z"/>
							<path class="st14" d="M633.87,476.67c-6.2,9.38-15.68,15.7-26.72,16.61s-21.42-3.78-29.08-12.01L633.87,476.67z"/>
							<path class="st15" d="M632.42,501.81c-4.5,11.7-12.75,19.74-22.78,20.58c-9.66,0.79-18.81-5.3-25.14-15.41
								c2.72-1.8,5.57-3.38,8.55-4.7c8.59-3.83,18.25-5.49,27.54-4.01C624.71,498.93,628.64,500.18,632.42,501.81z"/>
						</g>
						<g>
							<path class="st12" d="M574.27,435.3c0.23,7.6-3.94,13.9-9.3,14.06c-5.37,0.16-9.91-5.87-10.13-13.48
								c-0.23-7.6,3.94-13.9,9.3-14.06C569.5,421.67,574.04,427.7,574.27,435.3z"/>
							<path class="st14" d="M567.23,430.89c-3.13,0.09-2.99,4.95,0.15,4.86C570.5,435.66,570.36,430.8,567.23,430.89z"/>
						</g>
						<g>
							<path class="st12" d="M626.1,433.74c0.23,7.6,4.77,13.64,10.13,13.48c5.37-0.16,9.53-6.46,9.3-14.06
								c-0.23-7.6-4.77-13.64-10.13-13.48C630.04,419.84,625.88,426.14,626.1,433.74z"/>
							<path class="st14" d="M638.7,427.3c-3.13,0.09-2.99,4.95,0.15,4.86C641.97,432.06,641.83,427.2,638.7,427.3z"/>
						</g>
						<path class="st13" d="M609.5,450.84c-3.17-2.47-8.11-2.39-11.09,0.3l8.66,14.98c2.42-0.16,4.4-2.16,5.29-4.41
							C613.84,457.97,612.67,453.31,609.5,450.84z"/>
					</g>
					<g>
						<path class="st4" d="M532.97,451.68c-14.29,0.99-25.22,11.2-24.41,22.81c0.81,11.61,13.04,20.21,27.33,19.22
							c14.29-0.99,25.22-11.2,24.41-22.81C559.49,459.29,547.26,450.69,532.97,451.68z"/>
						<path class="st4" d="M670.5,458.72c-0.45-6.51-7.32-11.34-15.33-10.79c-8.02,0.56-14.15,6.29-13.7,12.8
							c0.45,6.51,7.32,11.34,15.33,10.79C664.81,470.97,670.95,465.24,670.5,458.72z"/>
					</g>
				</g>
				<path class="st11" d="M375.46,822.39c-10.86,46.16-18.22,93.17-21.98,140.44c-17.78-12.14-37.6-23.06-57.47-33.79
					c5.9-4.12,11.64-8.44,17.18-13.05c19.87-16.5,37.18-36.69,47.29-60.45C365.43,843.91,367.63,832.31,375.46,822.39z"/>
			</g>
		</g>
	</g>
	<g>
		<path class="st16" d="M536.27,986.69c-1.3,0-2.36-1.06-2.36-2.36c0-1.3,1.06-2.36,2.36-2.36c4.15,0,8.38-0.06,12.57-0.18
			c1.29-0.12,2.39,0.99,2.43,2.29c0.04,1.3-0.99,2.39-2.29,2.43C544.74,986.62,540.46,986.69,536.27,986.69z M523.63,986.51
			c-0.02,0-0.04,0-0.07,0c-4.21-0.12-8.48-0.29-12.69-0.53c-1.3-0.07-2.3-1.19-2.23-2.49c0.07-1.3,1.17-2.3,2.49-2.23
			c4.17,0.23,8.4,0.41,12.56,0.52c1.3,0.04,2.33,1.12,2.3,2.43C525.95,985.5,524.9,986.51,523.63,986.51z M561.53,985.97
			c-1.24,0-2.29-0.97-2.36-2.23c-0.07-1.3,0.92-2.42,2.23-2.49c4.16-0.23,8.38-0.53,12.54-0.89c1.26-0.14,2.44,0.85,2.55,2.15
			c0.11,1.3-0.85,2.44-2.15,2.56c-4.21,0.36-8.47,0.66-12.67,0.9C561.62,985.96,561.58,985.97,561.53,985.97z M498.4,985.11
			c-0.07,0-0.13,0-0.2-0.01c-4.2-0.36-8.45-0.77-12.64-1.25c-1.3-0.15-2.23-1.32-2.08-2.61c0.14-1.3,1.33-2.23,2.61-2.08
			c4.15,0.47,8.35,0.88,12.51,1.23c1.3,0.11,2.27,1.25,2.16,2.55C500.65,984.18,499.61,985.11,498.4,985.11z M586.72,983.82
			c-1.19,0-2.21-0.89-2.34-2.1c-0.15-1.3,0.78-2.47,2.08-2.61c4.14-0.47,8.33-1.01,12.46-1.6c1.3-0.2,2.49,0.71,2.67,2
			c0.19,1.29-0.71,2.49-2,2.68c-4.18,0.6-8.42,1.14-12.6,1.62C586.9,983.81,586.81,983.82,586.72,983.82z M473.28,982.27
			c-0.11,0-0.22-0.01-0.34-0.02c-4.17-0.59-8.39-1.25-12.55-1.97c-1.29-0.22-2.15-1.44-1.93-2.73c0.22-1.29,1.44-2.15,2.73-1.93
			c4.11,0.7,8.29,1.36,12.42,1.94c1.29,0.18,2.19,1.38,2.01,2.67C475.45,981.42,474.44,982.27,473.28,982.27z M611.74,980.24
			c-1.13,0-2.13-0.81-2.33-1.96c-0.22-1.29,0.64-2.51,1.93-2.73c4.09-0.7,8.24-1.48,12.35-2.31c1.27-0.25,2.52,0.57,2.78,1.85
			c0.26,1.28-0.57,2.53-1.85,2.78c-4.16,0.84-8.36,1.62-12.49,2.34C612,980.23,611.87,980.24,611.74,980.24z M448.37,978
			c-0.16,0-0.31-0.02-0.47-0.05c-4.15-0.83-8.32-1.74-12.42-2.68c-1.27-0.29-2.06-1.56-1.77-2.84c0.29-1.27,1.56-2.05,2.84-1.77
			c4.05,0.94,8.18,1.83,12.29,2.65c1.28,0.26,2.11,1.5,1.85,2.78C450.46,977.23,449.47,978,448.37,978z M636.51,975.24
			c-1.08,0-2.05-0.74-2.3-1.83c-0.3-1.27,0.5-2.54,1.77-2.84c4.04-0.94,8.15-1.95,12.2-3.02c1.27-0.33,2.56,0.42,2.89,1.69
			c0.33,1.26-0.42,2.55-1.69,2.89c-4.1,1.08-8.25,2.1-12.34,3.05C636.87,975.22,636.69,975.24,636.51,975.24z M423.74,972.31
			c-0.2,0-0.4-0.02-0.6-0.08c-4.1-1.07-8.22-2.21-12.25-3.39c-1.25-0.37-1.97-1.68-1.6-2.93c0.37-1.25,1.68-1.97,2.93-1.6
			c3.99,1.17,8.06,2.3,12.11,3.35c1.26,0.33,2.02,1.62,1.69,2.88C425.75,971.61,424.79,972.31,423.74,972.31z M660.96,968.82
			c-1.02,0-1.96-0.67-2.27-1.7c-0.37-1.25,0.35-2.57,1.6-2.93c4.02-1.18,8.06-2.43,12.01-3.71c1.24-0.4,2.58,0.28,2.98,1.52
			c0.4,1.24-0.28,2.58-1.52,2.98c-3.99,1.3-8.08,2.56-12.14,3.75C661.4,968.79,661.18,968.82,660.96,968.82z M399.48,965.22
			c-0.24,0-0.49-0.04-0.73-0.12c-4.02-1.3-8.08-2.68-12.07-4.1c-1.23-0.44-1.87-1.79-1.43-3.02c0.44-1.23,1.79-1.87,3.02-1.43
			c3.95,1.41,7.96,2.77,11.94,4.06c1.24,0.4,1.92,1.73,1.52,2.98C401.41,964.58,400.48,965.22,399.48,965.22z M685,961
			c-0.97,0-1.88-0.6-2.23-1.57c-0.44-1.23,0.2-2.58,1.43-3.02c3.91-1.4,7.87-2.88,11.78-4.4c1.21-0.48,2.59,0.13,3.06,1.34
			c0.47,1.22-0.13,2.59-1.34,3.06c-3.95,1.54-7.95,3.04-11.9,4.45C685.53,960.96,685.26,961,685,961z M375.59,956.71
			c-0.29,0-0.58-0.05-0.86-0.16c-3.94-1.53-7.91-3.14-11.81-4.79c-1.2-0.51-1.76-1.9-1.26-3.1c0.51-1.2,1.89-1.76,3.1-1.26
			c3.86,1.63,7.79,3.23,11.68,4.74c1.22,0.47,1.82,1.84,1.35,3.06C377.43,956.13,376.54,956.71,375.59,956.71z M708.51,951.84
			c-0.92,0-1.8-0.54-2.18-1.44c-0.51-1.2,0.06-2.59,1.26-3.1c3.79-1.6,7.65-3.3,11.47-5.05c1.19-0.54,2.59-0.02,3.13,1.17
			c0.54,1.19,0.02,2.59-1.17,3.13c-3.85,1.76-7.76,3.48-11.59,5.1C709.13,951.78,708.81,951.84,708.51,951.84z M352.25,946.84
			c-0.33,0-0.66-0.07-0.98-0.21c-3.84-1.76-7.71-3.59-11.5-5.46c-1.17-0.58-1.65-1.99-1.08-3.16c0.58-1.17,2-1.65,3.16-1.08
			c3.75,1.85,7.58,3.67,11.38,5.4c1.19,0.54,1.71,1.94,1.17,3.13C354,946.33,353.15,946.84,352.25,946.84z M731.42,941.35
			c-0.87,0-1.71-0.48-2.12-1.32c-0.58-1.17-0.1-2.59,1.08-3.16c3.74-1.84,7.49-3.76,11.17-5.7c1.15-0.61,2.58-0.17,3.19,0.98
			c0.61,1.15,0.17,2.58-0.98,3.19c-3.71,1.96-7.51,3.9-11.29,5.76C732.13,941.27,731.77,941.35,731.42,941.35z M329.53,935.65
			c-0.37,0-0.75-0.09-1.1-0.27c-3.71-1.96-7.47-4.02-11.17-6.11c-1.14-0.64-1.54-2.08-0.89-3.22c0.64-1.14,2.09-1.53,3.22-0.89
			c3.66,2.07,7.38,4.1,11.05,6.04c1.15,0.61,1.59,2.04,0.98,3.19C331.19,935.2,330.37,935.65,329.53,935.65z M753.72,929.56
			c-0.82,0-1.62-0.43-2.06-1.2c-0.64-1.14-0.24-2.58,0.89-3.22c3.63-2.05,7.27-4.18,10.83-6.33c1.11-0.67,2.57-0.32,3.24,0.8
			c0.67,1.12,0.32,2.57-0.8,3.24c-3.6,2.17-7.28,4.33-10.95,6.4C754.51,929.47,754.11,929.56,753.72,929.56z M307.49,923.19
			c-0.42,0-0.84-0.11-1.22-0.34c-3.6-2.17-7.23-4.44-10.79-6.73c-1.1-0.71-1.42-2.17-0.71-3.27c0.71-1.1,2.17-1.41,3.27-0.71
			c3.53,2.27,7.12,4.51,10.68,6.66c1.12,0.68,1.48,2.13,0.8,3.24C309.07,922.78,308.29,923.19,307.49,923.19z M775.31,916.52
			c-0.78,0-1.54-0.38-1.99-1.08c-0.71-1.1-0.39-2.56,0.71-3.27c3.48-2.24,7-4.57,10.46-6.94c1.08-0.74,2.55-0.46,3.28,0.61
			c0.74,1.08,0.46,2.55-0.61,3.28c-3.5,2.39-7.05,4.75-10.57,7.02C776.19,916.4,775.75,916.52,775.31,916.52z M286.21,909.48
			c-0.46,0-0.93-0.13-1.33-0.41c-3.46-2.37-6.96-4.84-10.39-7.33c-1.06-0.77-1.29-2.24-0.52-3.3c0.77-1.06,2.25-1.29,3.3-0.52
			c3.39,2.47,6.85,4.91,10.28,7.26c1.08,0.74,1.35,2.21,0.61,3.28C287.7,909.12,286.96,909.48,286.21,909.48z M796.14,902.26
			c-0.73,0-1.45-0.34-1.91-0.97c-0.77-1.06-0.54-2.53,0.52-3.3c3.38-2.46,6.76-4.99,10.05-7.53c1.03-0.8,2.52-0.61,3.31,0.43
			c0.8,1.03,0.61,2.52-0.43,3.31c-3.33,2.57-6.75,5.13-10.16,7.61C797.11,902.12,796.62,902.26,796.14,902.26z M265.76,894.6
			c-0.5,0-1.01-0.16-1.44-0.49c-3.34-2.58-6.69-5.24-9.95-7.91c-1.01-0.83-1.16-2.32-0.33-3.32c0.82-1.01,2.32-1.16,3.32-0.33
			c3.23,2.64,6.54,5.28,9.85,7.83c1.03,0.8,1.22,2.28,0.43,3.32C267.16,894.28,266.46,894.6,265.76,894.6z M816.13,886.84
			c-0.68,0-1.36-0.3-1.83-0.87c-0.83-1.01-0.68-2.5,0.33-3.33c3.23-2.65,6.47-5.37,9.61-8.09c0.99-0.86,2.48-0.75,3.33,0.24
			c0.85,0.99,0.75,2.48-0.24,3.33c-3.18,2.75-6.44,5.5-9.71,8.18C817.18,886.66,816.65,886.84,816.13,886.84z M246.19,878.58
			c-0.55,0-1.1-0.19-1.55-0.58c-3.2-2.77-6.39-5.62-9.48-8.46c-0.96-0.88-1.02-2.38-0.14-3.34c0.88-0.96,2.38-1.02,3.34-0.14
			c3.06,2.81,6.22,5.63,9.38,8.37c0.99,0.85,1.09,2.35,0.24,3.33C247.51,878.3,246.85,878.58,246.19,878.58z M835.22,870.29
			c-0.64,0-1.28-0.26-1.74-0.76c-0.88-0.96-0.82-2.46,0.14-3.34c3.06-2.81,6.14-5.71,9.14-8.63c0.94-0.91,2.43-0.89,3.34,0.05
			c0.91,0.94,0.89,2.43-0.05,3.34c-3.03,2.95-6.14,5.88-9.23,8.72C836.36,870.09,835.79,870.29,835.22,870.29z M227.57,861.48
			c-0.59,0-1.19-0.22-1.65-0.67c-3.01-2.93-6.04-5.95-8.98-8.98c-0.91-0.94-0.89-2.43,0.05-3.34c0.94-0.91,2.43-0.89,3.34,0.05
			c2.92,3,5.91,5.99,8.89,8.89c0.94,0.91,0.96,2.4,0.05,3.34C228.8,861.24,228.18,861.48,227.57,861.48z M853.35,852.69
			c-0.59,0-1.19-0.22-1.65-0.67c-0.94-0.91-0.96-2.41-0.05-3.34c2.91-2.99,5.81-6.06,8.64-9.13c0.88-0.96,2.38-1.02,3.34-0.14
			c0.96,0.88,1.02,2.38,0.14,3.34c-2.85,3.11-5.79,6.21-8.73,9.23C854.58,852.45,853.96,852.69,853.35,852.69z M209.95,843.36
			c-0.64,0-1.28-0.26-1.74-0.76c-2.83-3.09-5.68-6.27-8.46-9.47c-0.86-0.99-0.75-2.48,0.24-3.33c0.99-0.86,2.48-0.75,3.33,0.24
			c2.75,3.17,5.56,6.32,8.37,9.37c0.88,0.96,0.82,2.46-0.14,3.34C211.1,843.16,210.53,843.36,209.95,843.36z M870.45,834.07
			c-0.55,0-1.1-0.19-1.55-0.58c-0.98-0.86-1.09-2.35-0.24-3.33c2.74-3.15,5.47-6.39,8.11-9.61c0.83-1.01,2.32-1.16,3.32-0.33
			c1.01,0.83,1.16,2.32,0.33,3.32c-2.67,3.26-5.43,6.53-8.19,9.72C871.77,833.8,871.11,834.07,870.45,834.07z M193.4,824.28
			c-0.68,0-1.36-0.3-1.83-0.87c-2.68-3.28-5.34-6.62-7.9-9.93c-0.8-1.03-0.61-2.52,0.43-3.32c1.03-0.8,2.52-0.61,3.32,0.43
			c2.53,3.28,5.16,6.59,7.82,9.83c0.83,1.01,0.68,2.5-0.33,3.33C194.46,824.1,193.93,824.28,193.4,824.28z M886.48,814.51
			c-0.5,0-1.01-0.16-1.44-0.49c-1.03-0.8-1.22-2.28-0.42-3.31c2.54-3.29,5.08-6.68,7.55-10.06c0.77-1.05,2.25-1.29,3.3-0.52
			c1.05,0.77,1.29,2.25,0.52,3.3c-2.49,3.42-5.06,6.84-7.63,10.17C887.89,814.2,887.19,814.51,886.48,814.51z M177.97,804.29
			c-0.73,0-1.45-0.34-1.91-0.97c-2.46-3.38-4.93-6.87-7.32-10.36c-0.74-1.08-0.46-2.55,0.61-3.29c1.08-0.74,2.55-0.46,3.29,0.61
			c2.37,3.46,4.81,6.91,7.25,10.25c0.77,1.06,0.54,2.53-0.52,3.3C178.94,804.15,178.45,804.29,177.97,804.29z M901.38,794.06
			c-0.46,0-0.93-0.13-1.34-0.41c-1.08-0.74-1.35-2.21-0.61-3.29c2.36-3.44,4.71-6.97,6.97-10.48c0.71-1.1,2.17-1.41,3.27-0.71
			c1.1,0.71,1.41,2.17,0.71,3.27c-2.29,3.55-4.66,7.11-7.04,10.59C902.87,793.7,902.13,794.06,901.38,794.06z M163.7,783.47
			c-0.78,0-1.54-0.38-1.99-1.08c-2.28-3.54-4.54-7.16-6.72-10.76c-0.68-1.12-0.32-2.57,0.8-3.24c1.12-0.68,2.57-0.32,3.24,0.8
			c2.16,3.57,4.39,7.15,6.65,10.65c0.71,1.1,0.39,2.56-0.71,3.27C164.58,783.35,164.14,783.47,163.7,783.47z M915.08,772.79
			c-0.42,0-0.84-0.11-1.22-0.34c-1.12-0.68-1.47-2.13-0.8-3.24c2.16-3.57,4.3-7.23,6.36-10.87c0.64-1.14,2.09-1.53,3.22-0.89
			c1.14,0.64,1.54,2.09,0.89,3.22c-2.08,3.68-4.25,7.37-6.43,10.98C916.66,772.39,915.88,772.79,915.08,772.79z M150.64,761.88
			c-0.82,0-1.62-0.43-2.06-1.2c-2.08-3.66-4.13-7.41-6.09-11.12c-0.61-1.15-0.17-2.58,0.98-3.19c1.15-0.61,2.58-0.17,3.19,0.98
			c1.94,3.67,3.97,7.38,6.02,11c0.64,1.14,0.24,2.58-0.89,3.22C151.44,761.79,151.04,761.88,150.64,761.88z M927.56,750.76
			c-0.37,0-0.75-0.09-1.1-0.27c-1.15-0.61-1.59-2.04-0.98-3.19c1.96-3.71,3.89-7.49,5.73-11.22c0.58-1.17,2-1.65,3.16-1.08
			c1.17,0.58,1.65,1.99,1.08,3.16c-1.86,3.77-3.81,7.59-5.79,11.34C929.23,750.31,928.41,750.76,927.56,750.76z M138.85,739.6
			c-0.87,0-1.71-0.48-2.12-1.32c-1.85-3.75-3.68-7.6-5.44-11.44c-0.54-1.19-0.02-2.59,1.16-3.13c1.18-0.54,2.59-0.02,3.13,1.16
			c1.74,3.8,3.55,7.61,5.39,11.32c0.58,1.17,0.1,2.59-1.08,3.16C139.56,739.52,139.2,739.6,138.85,739.6z M938.76,728.04
			c-0.33,0-0.66-0.07-0.98-0.21c-1.19-0.54-1.71-1.95-1.17-3.13c1.75-3.82,3.46-7.7,5.08-11.53c0.51-1.2,1.9-1.76,3.1-1.26
			c1.2,0.51,1.76,1.9,1.26,3.1c-1.64,3.87-3.37,7.8-5.13,11.66C940.51,727.53,939.66,728.04,938.76,728.04z M128.35,716.69
			c-0.92,0-1.8-0.54-2.18-1.44c-1.64-3.86-3.24-7.81-4.78-11.73c-0.47-1.22,0.13-2.59,1.34-3.06c1.22-0.47,2.59,0.13,3.06,1.34
			c1.51,3.88,3.1,7.78,4.72,11.61c0.51,1.2-0.05,2.59-1.25,3.1C128.97,716.63,128.66,716.69,128.35,716.69z M948.64,704.7
			c-0.29,0-0.58-0.05-0.86-0.16c-1.22-0.47-1.82-1.84-1.34-3.06c1.52-3.92,3.01-7.89,4.41-11.81c0.44-1.23,1.79-1.87,3.02-1.43
			c1.23,0.44,1.87,1.79,1.43,3.02c-1.42,3.96-2.91,7.98-4.46,11.94C950.48,704.13,949.58,704.7,948.64,704.7z M119.17,693.18
			c-0.97,0-1.88-0.6-2.22-1.57c-1.43-3.99-2.81-8.04-4.11-12.02c-0.4-1.24,0.28-2.57,1.52-2.98c1.24-0.4,2.57,0.28,2.98,1.52
			c1.28,3.94,2.65,7.95,4.06,11.9c0.44,1.23-0.2,2.58-1.43,3.02C119.7,693.14,119.44,693.18,119.17,693.18z M957.16,680.82
			c-0.24,0-0.49-0.04-0.73-0.12c-1.24-0.4-1.92-1.74-1.52-2.98c1.28-3.96,2.53-8,3.71-12.01c0.37-1.25,1.69-1.97,2.93-1.6
			c1.25,0.37,1.97,1.68,1.6,2.93c-1.19,4.06-2.45,8.14-3.75,12.14C959.08,680.19,958.16,680.82,957.16,680.82z M111.34,669.15
			c-1.02,0-1.96-0.67-2.27-1.7c-1.19-4.06-2.34-8.18-3.41-12.24c-0.33-1.26,0.42-2.56,1.68-2.89c1.27-0.34,2.56,0.42,2.89,1.68
			c1.06,4.02,2.19,8.1,3.37,12.11c0.37,1.25-0.35,2.56-1.6,2.93C111.79,669.12,111.57,669.15,111.34,669.15z M964.27,656.57
			c-0.2,0-0.4-0.02-0.6-0.08c-1.26-0.33-2.02-1.62-1.69-2.88c1.06-4.02,2.07-8.13,3.01-12.2c0.29-1.27,1.56-2.06,2.83-1.77
			c1.27,0.29,2.06,1.56,1.77,2.84c-0.95,4.12-1.98,8.27-3.04,12.33C966.28,655.86,965.32,656.57,964.27,656.57z M104.91,644.7
			c-1.08,0-2.05-0.74-2.3-1.83c-0.96-4.12-1.86-8.29-2.7-12.42c-0.26-1.28,0.57-2.52,1.85-2.78c1.27-0.26,2.52,0.57,2.78,1.85
			c0.82,4.08,1.72,8.21,2.67,12.28c0.3,1.27-0.5,2.54-1.77,2.84C105.27,644.68,105.09,644.7,104.91,644.7z M969.97,631.94
			c-0.16,0-0.31-0.02-0.47-0.05c-1.28-0.26-2.11-1.5-1.85-2.78c0.82-4.08,1.6-8.24,2.3-12.36c0.22-1.29,1.46-2.15,2.73-1.93
			c1.29,0.22,2.15,1.44,1.93,2.73c-0.72,4.16-1.5,8.37-2.33,12.49C972.06,631.17,971.08,631.94,969.97,631.94z M99.9,619.93
			c-1.13,0-2.13-0.81-2.33-1.96c-0.72-4.17-1.39-8.4-1.98-12.55c-0.19-1.29,0.71-2.49,2-2.68c1.28-0.18,2.49,0.71,2.68,2
			c0.59,4.11,1.25,8.28,1.96,12.42c0.22,1.28-0.64,2.51-1.93,2.73C100.17,619.92,100.03,619.93,99.9,619.93z M974.25,607.03
			c-0.11,0-0.22-0.01-0.34-0.02c-1.29-0.18-2.19-1.38-2.01-2.67c0.59-4.15,1.13-8.35,1.6-12.47c0.15-1.3,1.31-2.24,2.61-2.08
			c1.3,0.15,2.23,1.32,2.08,2.61c-0.47,4.17-1.02,8.41-1.61,12.6C976.42,606.18,975.41,607.03,974.25,607.03z M96.31,594.91
			c-1.18,0-2.21-0.89-2.34-2.1c-0.48-4.21-0.91-8.46-1.26-12.64c-0.11-1.3,0.85-2.44,2.15-2.56c1.3-0.12,2.44,0.85,2.56,2.15
			c0.35,4.13,0.78,8.34,1.25,12.51c0.15,1.3-0.78,2.47-2.08,2.61C96.49,594.91,96.4,594.91,96.31,594.91z M977.1,581.92
			c-0.07,0-0.13,0-0.2-0.01c-1.3-0.11-2.27-1.25-2.16-2.55c0.35-4.18,0.65-8.4,0.88-12.54c0.07-1.3,1.2-2.24,2.49-2.23
			c1.3,0.07,2.3,1.19,2.23,2.49c-0.24,4.19-0.54,8.45-0.89,12.67C979.35,580.99,978.32,581.92,977.1,581.92z M94.15,569.73
			c-1.24,0-2.29-0.97-2.36-2.23c-0.24-4.21-0.43-8.49-0.55-12.7c-0.04-1.3,0.99-2.39,2.29-2.43c0.02,0,0.05,0,0.07,0
			c1.27,0,2.32,1.01,2.36,2.3c0.12,4.17,0.3,8.39,0.54,12.56c0.08,1.3-0.92,2.42-2.22,2.49C94.24,569.73,94.2,569.73,94.15,569.73z
			 M978.52,556.68c-0.02,0-0.04,0-0.07,0c-1.3-0.04-2.33-1.12-2.3-2.43c0.12-4.19,0.18-8.42,0.18-12.57v-0.83
			c0-1.3,1.06-2.36,2.36-2.36c1.3,0,2.36,1.06,2.36,2.36v0.83c0,4.19-0.06,8.47-0.18,12.7
			C980.85,555.67,979.79,556.68,978.52,556.68z M93.42,544.47c-1.3,0-2.36-1.06-2.36-2.36v-0.42c0-4.09,0.06-8.22,0.17-12.29
			c0.03-1.3,1.1-2.38,2.43-2.3c1.3,0.04,2.33,1.12,2.3,2.43c-0.11,4.02-0.16,8.11-0.16,12.16v0.42
			C95.78,543.41,94.72,544.47,93.42,544.47z M978.49,530.58c-1.27,0-2.32-1.01-2.36-2.29c-0.12-4.15-0.31-8.37-0.55-12.56
			c-0.08-1.3,0.92-2.42,2.22-2.5c1.29-0.11,2.42,0.92,2.5,2.22c0.25,4.23,0.44,8.5,0.56,12.7c0.04,1.3-0.99,2.39-2.29,2.43
			C978.54,530.58,978.52,530.58,978.49,530.58z M94.11,519.2c-0.04,0-0.09,0-0.13,0c-1.3-0.07-2.3-1.19-2.23-2.49
			c0.23-4.2,0.53-8.47,0.88-12.67c0.11-1.3,1.25-2.24,2.55-2.16c1.3,0.11,2.27,1.25,2.16,2.55c-0.35,4.16-0.64,8.38-0.87,12.54
			C96.4,518.23,95.35,519.2,94.11,519.2z M977.03,505.35c-1.21,0-2.24-0.93-2.35-2.16c-0.36-4.17-0.79-8.38-1.26-12.51
			c-0.15-1.3,0.78-2.47,2.08-2.62c1.3-0.15,2.47,0.78,2.62,2.08c0.48,4.17,0.91,8.43,1.28,12.64c0.11,1.3-0.85,2.45-2.15,2.56
			C977.16,505.34,977.09,505.35,977.03,505.35z M96.22,494.01c-0.09,0-0.18,0-0.27-0.02c-1.3-0.14-2.23-1.32-2.08-2.61
			c0.47-4.18,1.01-8.43,1.6-12.6c0.18-1.29,1.39-2.18,2.67-2.01c1.29,0.18,2.19,1.38,2.01,2.67c-0.58,4.13-1.12,8.33-1.58,12.47
			C98.43,493.12,97.41,494.01,96.22,494.01z M974.13,480.24c-1.16,0-2.17-0.85-2.34-2.03c-0.6-4.14-1.26-8.32-1.97-12.41
			c-0.22-1.29,0.64-2.51,1.92-2.73c1.28-0.22,2.51,0.64,2.73,1.92c0.72,4.14,1.39,8.36,2,12.55c0.19,1.29-0.71,2.49-2,2.68
			C974.35,480.23,974.24,480.24,974.13,480.24z M99.76,468.99c-0.13,0-0.27-0.01-0.4-0.03c-1.29-0.22-2.15-1.44-1.93-2.73
			c0.71-4.15,1.49-8.36,2.32-12.49c0.26-1.28,1.5-2.1,2.78-1.85c1.28,0.26,2.11,1.5,1.85,2.78c-0.82,4.09-1.59,8.25-2.29,12.36
			C101.89,468.18,100.89,468.99,99.76,468.99z M969.8,455.34c-1.1,0-2.08-0.77-2.31-1.89c-0.83-4.07-1.73-8.2-2.68-12.28
			c-0.3-1.27,0.49-2.54,1.76-2.84c1.27-0.29,2.54,0.49,2.84,1.76c0.96,4.13,1.88,8.3,2.71,12.41c0.26,1.28-0.57,2.53-1.84,2.79
			C970.12,455.32,969.96,455.34,969.8,455.34z M104.73,444.21c-0.18,0-0.35-0.02-0.53-0.06c-1.27-0.29-2.06-1.56-1.77-2.83
			c0.94-4.09,1.96-8.24,3.03-12.34c0.33-1.26,1.61-2.02,2.88-1.69c1.26,0.33,2.02,1.62,1.69,2.88c-1.06,4.05-2.07,8.16-3,12.21
			C106.78,443.47,105.8,444.21,104.73,444.21z M964.05,430.73c-1.05,0-2-0.7-2.28-1.76c-1.07-4.05-2.21-8.12-3.38-12.11
			c-0.37-1.25,0.35-2.57,1.6-2.94c1.25-0.37,2.57,0.35,2.94,1.6c1.19,4.03,2.34,8.15,3.42,12.24c0.33,1.26-0.42,2.56-1.68,2.89
			C964.46,430.7,964.25,430.73,964.05,430.73z M111.11,419.75c-0.22,0-0.44-0.03-0.66-0.1c-1.25-0.36-1.97-1.68-1.61-2.93
			c1.18-4.03,2.43-8.11,3.74-12.15c0.4-1.24,1.73-1.92,2.98-1.52c1.24,0.4,1.92,1.73,1.52,2.98c-1.29,3.99-2.53,8.03-3.7,12.01
			C113.08,419.08,112.14,419.75,111.11,419.75z M956.9,406.48c-1,0-1.92-0.63-2.25-1.63c-1.29-3.96-2.66-7.96-4.07-11.89
			c-0.44-1.23,0.2-2.58,1.43-3.02c1.23-0.44,2.58,0.2,3.02,1.43c1.43,3.97,2.81,8.02,4.12,12.02c0.4,1.24-0.27,2.58-1.51,2.98
			C957.39,406.45,957.15,406.48,956.9,406.48z M118.91,395.66c-0.26,0-0.53-0.04-0.79-0.14c-1.23-0.44-1.87-1.79-1.43-3.02
			c1.42-3.98,2.91-8,4.44-11.94c0.47-1.22,1.84-1.82,3.06-1.35c1.22,0.47,1.82,1.84,1.35,3.06c-1.52,3.9-3,7.88-4.4,11.82
			C120.79,395.06,119.88,395.66,118.91,395.66z M948.37,382.69c-0.94,0-1.84-0.57-2.2-1.5c-1.51-3.85-3.1-7.75-4.73-11.6
			c-0.51-1.2,0.05-2.59,1.25-3.1c1.2-0.51,2.59,0.05,3.1,1.25c1.65,3.89,3.26,7.84,4.78,11.72c0.48,1.22-0.12,2.59-1.34,3.06
			C948.94,382.64,948.65,382.69,948.37,382.69z M128.08,372.03c-0.31,0-0.62-0.06-0.92-0.19c-1.2-0.51-1.77-1.89-1.26-3.1
			c1.65-3.9,3.37-7.82,5.12-11.66c0.54-1.19,1.94-1.71,3.13-1.17c1.19,0.54,1.71,1.94,1.17,3.13c-1.73,3.8-3.44,7.68-5.07,11.54
			C129.88,371.49,129.01,372.03,128.08,372.03z M938.51,359.51c-0.9,0-1.75-0.51-2.15-1.38c-1.73-3.77-3.55-7.58-5.39-11.32
			c-0.58-1.17-0.1-2.59,1.07-3.17c1.17-0.58,2.59-0.1,3.17,1.07c1.87,3.78,3.7,7.63,5.45,11.44c0.54,1.19,0.02,2.59-1.16,3.13
			C939.18,359.44,938.84,359.51,938.51,359.51z M138.6,348.99c-0.35,0-0.71-0.08-1.04-0.24c-1.17-0.58-1.65-1.99-1.08-3.16
			c1.87-3.8,3.81-7.62,5.78-11.34c0.61-1.16,2.04-1.6,3.19-0.99c1.15,0.61,1.6,2.04,0.99,3.19c-1.95,3.68-3.87,7.46-5.72,11.22
			C140.32,348.5,139.48,348.99,138.6,348.99z M927.34,336.91c-0.85,0-1.66-0.46-2.09-1.26c-1.96-3.69-3.99-7.39-6.04-11
			c-0.64-1.14-0.25-2.58,0.89-3.22c1.13-0.64,2.58-0.25,3.22,0.89c2.07,3.64,4.12,7.38,6.1,11.11c0.61,1.15,0.17,2.58-0.98,3.2
			C928.09,336.82,927.71,336.91,927.34,336.91z M150.43,326.59c-0.4,0-0.79-0.1-1.16-0.31c-1.14-0.64-1.54-2.08-0.89-3.22
			c2.08-3.68,4.24-7.38,6.42-10.99c0.67-1.12,2.13-1.48,3.24-0.8c1.12,0.67,1.48,2.13,0.8,3.24c-2.16,3.57-4.29,7.23-6.35,10.87
			C152.05,326.16,151.25,326.59,150.43,326.59z M914.89,314.97c-0.8,0-1.58-0.4-2.02-1.14c-2.17-3.57-4.41-7.15-6.66-10.64
			c-0.71-1.1-0.39-2.56,0.7-3.27c1.1-0.7,2.56-0.39,3.27,0.7c2.28,3.53,4.54,7.14,6.73,10.75c0.68,1.12,0.32,2.57-0.8,3.24
			C915.73,314.86,915.31,314.97,914.89,314.97z M163.51,304.92c-0.44,0-0.88-0.12-1.28-0.38c-1.1-0.71-1.42-2.17-0.71-3.27
			c2.29-3.56,4.66-7.13,7.03-10.6c0.74-1.08,2.21-1.35,3.28-0.61c1.08,0.74,1.35,2.21,0.61,3.28c-2.35,3.44-4.69,6.96-6.96,10.49
			C165.04,304.54,164.28,304.92,163.51,304.92z M901.2,293.77c-0.75,0-1.49-0.36-1.95-1.02c-2.36-3.43-4.79-6.88-7.25-10.25
			c-0.77-1.05-0.54-2.53,0.52-3.3c1.05-0.77,2.53-0.54,3.3,0.52c2.49,3.41,4.95,6.89,7.33,10.36c0.74,1.08,0.47,2.55-0.61,3.29
			C902.13,293.64,901.66,293.77,901.2,293.77z M177.8,284.04c-0.48,0-0.97-0.15-1.39-0.45c-1.06-0.77-1.29-2.25-0.52-3.3
			c2.49-3.42,5.05-6.85,7.62-10.18c0.8-1.04,2.28-1.23,3.31-0.43c1.03,0.8,1.22,2.28,0.43,3.31c-2.54,3.3-5.08,6.68-7.54,10.07
			C179.25,283.7,178.53,284.04,177.8,284.04z M886.32,273.37c-0.71,0-1.4-0.32-1.87-0.92c-2.52-3.27-5.16-6.57-7.83-9.82
			c-0.83-1.01-0.68-2.5,0.33-3.33c1.01-0.83,2.5-0.68,3.33,0.33c2.7,3.29,5.36,6.63,7.91,9.93c0.8,1.03,0.61,2.52-0.42,3.32
			C887.33,273.21,886.82,273.37,886.32,273.37z M193.25,264.01c-0.53,0-1.06-0.18-1.49-0.53c-1.01-0.83-1.16-2.32-0.33-3.32
			c2.65-3.25,5.41-6.52,8.19-9.73c0.85-0.98,2.35-1.09,3.33-0.24c0.99,0.85,1.09,2.35,0.24,3.33c-2.75,3.17-5.47,6.41-8.1,9.62
			C194.61,263.72,193.93,264.01,193.25,264.01z M870.3,253.85c-0.66,0-1.32-0.28-1.78-0.81c-2.74-3.15-5.55-6.3-8.38-9.37
			c-0.88-0.96-0.82-2.46,0.14-3.34c0.96-0.88,2.45-0.82,3.34,0.14c2.85,3.1,5.7,6.29,8.47,9.47c0.86,0.98,0.75,2.48-0.23,3.33
			C871.4,253.66,870.85,253.85,870.3,253.85z M209.81,244.9c-0.57,0-1.14-0.21-1.6-0.62c-0.96-0.88-1.03-2.38-0.14-3.34
			c2.86-3.12,5.79-6.23,8.72-9.24c0.91-0.94,2.41-0.96,3.34-0.05c0.94,0.91,0.96,2.41,0.05,3.34c-2.9,2.98-5.8,6.06-8.63,9.14
			C211.08,244.64,210.44,244.9,209.81,244.9z M853.19,235.25c-0.62,0-1.23-0.24-1.69-0.71c-2.94-3.02-5.93-6-8.9-8.88
			c-0.94-0.91-0.96-2.41-0.05-3.34c0.91-0.94,2.41-0.96,3.34-0.05c3,2.91,6.02,5.93,8.99,8.97c0.91,0.94,0.89,2.43-0.04,3.34
			C854.38,235.03,853.79,235.25,853.19,235.25z M227.41,226.77c-0.62,0-1.23-0.24-1.69-0.72c-0.91-0.94-0.89-2.43,0.05-3.34
			c3.01-2.93,6.12-5.87,9.23-8.73c0.96-0.88,2.46-0.82,3.34,0.14c0.88,0.96,0.82,2.46-0.14,3.34c-3.08,2.83-6.15,5.73-9.13,8.64
			C228.6,226.54,228.01,226.77,227.41,226.77z M835.05,217.65c-0.57,0-1.14-0.21-1.6-0.62c-3.06-2.8-6.21-5.62-9.39-8.36
			c-0.99-0.85-1.1-2.35-0.24-3.33c0.85-0.99,2.35-1.1,3.33-0.24c3.21,2.78,6.4,5.62,9.49,8.45c0.96,0.88,1.03,2.38,0.14,3.34
			C836.33,217.4,835.69,217.65,835.05,217.65z M246.02,209.67c-0.66,0-1.32-0.28-1.79-0.81c-0.86-0.98-0.75-2.48,0.24-3.33
			c3.19-2.77,6.46-5.53,9.71-8.19c1.01-0.83,2.5-0.68,3.32,0.33c0.83,1.01,0.68,2.5-0.33,3.32c-3.22,2.63-6.45,5.36-9.6,8.1
			C247.12,209.48,246.57,209.67,246.02,209.67z M815.93,201.11c-0.53,0-1.06-0.17-1.49-0.53c-3.24-2.64-6.55-5.27-9.85-7.82
			c-1.03-0.8-1.22-2.28-0.43-3.32c0.8-1.03,2.28-1.22,3.32-0.43c3.34,2.57,6.69,5.23,9.96,7.9c1.01,0.82,1.16,2.31,0.33,3.32
			C817.3,200.81,816.62,201.11,815.93,201.11z M265.55,193.66c-0.71,0-1.4-0.32-1.87-0.92c-0.8-1.03-0.61-2.51,0.42-3.31
			c3.33-2.58,6.75-5.14,10.15-7.62c1.05-0.77,2.53-0.54,3.3,0.52c0.77,1.06,0.54,2.53-0.52,3.3c-3.36,2.45-6.74,4.99-10.04,7.54
			C266.56,193.5,266.05,193.66,265.55,193.66z M795.9,185.67c-0.48,0-0.97-0.15-1.39-0.45c-3.36-2.44-6.82-4.88-10.29-7.25
			c-1.08-0.74-1.35-2.21-0.62-3.28c0.74-1.08,2.21-1.35,3.28-0.62c3.51,2.4,7,4.86,10.4,7.33c1.06,0.77,1.29,2.25,0.52,3.3
			C797.35,185.33,796.63,185.67,795.9,185.67z M285.95,178.79c-0.75,0-1.49-0.36-1.95-1.03c-0.74-1.08-0.46-2.55,0.61-3.29
			c3.47-2.38,7.03-4.75,10.56-7.03c1.1-0.7,2.56-0.39,3.27,0.7c0.71,1.1,0.39,2.56-0.7,3.27c-3.5,2.26-7.01,4.59-10.45,6.95
			C286.88,178.66,286.42,178.79,285.95,178.79z M775.01,171.39c-0.44,0-0.88-0.12-1.28-0.38c-3.54-2.27-7.13-4.51-10.69-6.65
			c-1.12-0.67-1.48-2.13-0.8-3.24c0.67-1.12,2.13-1.48,3.24-0.8c3.59,2.16,7.23,4.43,10.8,6.72c1.1,0.7,1.42,2.17,0.71,3.26
			C776.55,171,775.79,171.39,775.01,171.39z M307.16,165.11c-0.8,0-1.58-0.4-2.02-1.14c-0.68-1.12-0.32-2.57,0.8-3.25
			c3.6-2.18,7.28-4.34,10.94-6.41c1.14-0.64,2.58-0.24,3.22,0.89c0.64,1.14,0.25,2.58-0.89,3.22c-3.62,2.06-7.27,4.19-10.82,6.34
			C308,165,307.58,165.11,307.16,165.11z M753.33,158.32c-0.39,0-0.79-0.1-1.16-0.3c-3.64-2.06-7.36-4.09-11.05-6.03
			c-1.15-0.61-1.6-2.04-0.99-3.19c0.61-1.15,2.04-1.59,3.19-0.99c3.73,1.97,7.49,4.02,11.17,6.1c1.14,0.64,1.54,2.08,0.9,3.22
			C754.96,157.89,754.16,158.32,753.33,158.32z M329.1,152.67c-0.85,0-1.67-0.46-2.09-1.26c-0.61-1.15-0.17-2.58,0.98-3.19
			c3.74-1.98,7.54-3.93,11.28-5.77c1.17-0.58,2.59-0.1,3.16,1.07c0.58,1.17,0.1,2.59-1.07,3.16c-3.71,1.83-7.46,3.75-11.16,5.71
			C329.85,152.58,329.48,152.67,329.1,152.67z M730.93,146.5c-0.35,0-0.7-0.08-1.04-0.24c-3.77-1.85-7.6-3.66-11.39-5.39
			c-1.19-0.54-1.71-1.94-1.17-3.13c0.54-1.19,1.95-1.71,3.13-1.17c3.83,1.75,7.7,3.58,11.51,5.45c1.17,0.58,1.66,1.99,1.08,3.16
			C732.64,146.02,731.8,146.5,730.93,146.5z M351.71,141.51c-0.9,0-1.75-0.51-2.15-1.38c-0.54-1.19-0.02-2.59,1.16-3.13
			c3.84-1.76,7.74-3.48,11.59-5.11c1.2-0.51,2.59,0.05,3.1,1.25c0.51,1.2-0.05,2.59-1.25,3.1c-3.81,1.62-7.67,3.32-11.46,5.06
			C352.37,141.44,352.04,141.51,351.71,141.51z M707.88,136c-0.31,0-0.62-0.06-0.92-0.19c-3.87-1.63-7.8-3.22-11.68-4.73
			c-1.22-0.47-1.82-1.84-1.35-3.06c0.47-1.22,1.84-1.82,3.06-1.35c3.92,1.52,7.9,3.13,11.81,4.78c1.2,0.51,1.77,1.89,1.26,3.1
			C709.68,135.45,708.8,136,707.88,136z M374.89,131.66c-0.94,0-1.84-0.57-2.2-1.5c-0.47-1.22,0.13-2.59,1.34-3.06
			c3.93-1.54,7.93-3.04,11.9-4.46c1.23-0.44,2.58,0.2,3.02,1.43c0.44,1.23-0.2,2.58-1.43,3.02c-3.92,1.41-7.88,2.89-11.77,4.41
			C375.47,131.61,375.18,131.66,374.89,131.66z M684.25,126.83c-0.26,0-0.53-0.04-0.79-0.14c-3.91-1.39-7.93-2.75-11.94-4.05
			c-1.24-0.4-1.92-1.73-1.52-2.98c0.4-1.24,1.73-1.92,2.98-1.52c4.06,1.31,8.12,2.69,12.08,4.09c1.23,0.44,1.87,1.79,1.43,3.02
			C686.13,126.22,685.22,126.83,684.25,126.83z M398.69,123.14c-1,0-1.92-0.63-2.25-1.63c-0.4-1.24,0.27-2.57,1.51-2.98
			c4.01-1.31,8.1-2.58,12.14-3.77c1.25-0.37,2.56,0.35,2.93,1.6c0.37,1.25-0.35,2.57-1.6,2.93c-4,1.18-8.03,2.43-12.01,3.73
			C399.18,123.1,398.93,123.14,398.69,123.14z M660.16,119.04c-0.22,0-0.44-0.03-0.66-0.09c-4.03-1.17-8.11-2.3-12.12-3.34
			c-1.26-0.33-2.02-1.62-1.69-2.88c0.33-1.26,1.61-2.02,2.88-1.69c4.05,1.06,8.17,2.19,12.25,3.38c1.25,0.36,1.97,1.68,1.61,2.93
			C662.12,118.37,661.18,119.04,660.16,119.04z M422.93,116c-1.05,0-2-0.7-2.28-1.76c-0.33-1.26,0.42-2.56,1.68-2.89
			c4.09-1.08,8.24-2.11,12.33-3.06c1.27-0.3,2.54,0.5,2.84,1.77c0.3,1.27-0.5,2.54-1.77,2.84c-4.05,0.94-8.16,1.96-12.2,3.03
			C423.33,115.97,423.13,116,422.93,116z M635.7,112.67c-0.18,0-0.35-0.02-0.53-0.06c-4.06-0.94-8.2-1.82-12.29-2.64
			c-1.28-0.26-2.11-1.5-1.85-2.78s1.5-2.11,2.78-1.85c4.13,0.83,8.31,1.72,12.42,2.67c1.27,0.29,2.06,1.56,1.77,2.83
			C637.75,111.93,636.78,112.67,635.7,112.67z M447.55,110.26c-1.1,0-2.08-0.77-2.31-1.89c-0.26-1.28,0.57-2.53,1.84-2.79
			c4.12-0.84,8.32-1.63,12.49-2.35c1.3-0.22,2.51,0.64,2.73,1.93c0.22,1.29-0.64,2.51-1.92,2.73c-4.12,0.71-8.28,1.5-12.35,2.32
			C447.86,110.25,447.7,110.26,447.55,110.26z M610.91,107.71c-0.13,0-0.27-0.01-0.4-0.03c-4.1-0.7-8.28-1.35-12.42-1.93
			c-1.29-0.18-2.19-1.38-2.01-2.67c0.18-1.29,1.39-2.19,2.67-2.01c4.19,0.59,8.41,1.25,12.55,1.95c1.29,0.22,2.15,1.44,1.93,2.73
			C613.04,106.9,612.04,107.71,610.91,107.71z M472.45,105.95c-1.16,0-2.17-0.85-2.34-2.03c-0.19-1.29,0.71-2.49,2-2.68
			c4.21-0.61,8.45-1.15,12.6-1.63c1.32-0.14,2.47,0.78,2.62,2.08c0.15,1.3-0.78,2.47-2.08,2.62c-4.1,0.47-8.3,1.01-12.47,1.61
			C472.68,105.94,472.56,105.95,472.45,105.95z M585.89,104.18c-0.09,0-0.18,0-0.27-0.02c-4.13-0.46-8.34-0.87-12.51-1.22
			c-1.3-0.11-2.27-1.25-2.16-2.55c0.11-1.3,1.25-2.24,2.55-2.16c4.22,0.35,8.47,0.77,12.64,1.24c1.3,0.14,2.23,1.31,2.08,2.61
			C588.1,103.29,587.07,104.18,585.89,104.18z M497.56,103.06c-1.21,0-2.25-0.93-2.35-2.16c-0.11-1.3,0.85-2.45,2.15-2.56
			c4.24-0.36,8.5-0.67,12.67-0.91c1.34-0.08,2.42,0.92,2.49,2.22c0.08,1.3-0.92,2.42-2.22,2.49c-4.12,0.24-8.34,0.54-12.54,0.9
			C497.7,103.06,497.63,103.06,497.56,103.06z M560.7,102.08c-0.04,0-0.09,0-0.13,0c-4.19-0.23-8.41-0.4-12.56-0.51
			c-1.3-0.03-2.33-1.12-2.3-2.42c0.03-1.3,1.14-2.38,2.42-2.3c4.19,0.11,8.46,0.28,12.69,0.52c1.3,0.07,2.3,1.19,2.23,2.49
			C562.99,101.11,561.95,102.08,560.7,102.08z M522.79,101.61c-1.27,0-2.32-1.01-2.36-2.29c-0.04-1.3,0.99-2.39,2.29-2.43
			c4.2-0.12,8.47-0.19,12.7-0.2c0,0,0,0,0,0c1.3,0,2.36,1.06,2.36,2.36c0,1.3-1.05,2.36-2.36,2.37c-4.18,0.01-8.41,0.07-12.57,0.19
			C522.84,101.61,522.82,101.61,522.79,101.61z"/>
	</g>
</g>
</svg>
