<?xml version="1.0" encoding="utf-8"?>
<!-- Generator: Adobe Illustrator 25.3.1, SVG Export Plug-In . SVG Version: 6.00 Build 0)  -->
<svg version="1.1" id="Layer_1" xmlns="http://www.w3.org/2000/svg" xmlns:xlink="http://www.w3.org/1999/xlink" x="0px" y="0px"
	 viewBox="0 0 1080 1080" style="enable-background:new 0 0 1080 1080;" xml:space="preserve">
<style type="text/css">
	.st0{clip-path:url(#SVGID_2_);fill:#FCE2C3;}
	.st1{clip-path:url(#SVGID_2_);}
	.st2{fill:#FBCFCA;}
	.st3{fill:#412312;}
	.st4{fill:#373841;}
	.st5{fill:#282A31;}
	.st6{fill:#44454D;}
	.st7{fill:#333B41;}
	.st8{fill:#FAC0BC;}
	.st9{fill:#203D4A;}
	.st10{fill:#FFFFFF;}
	.st11{fill:#D65554;}
	.st12{fill:#F37C7C;}
	.st13{fill:#DD5151;}
	.st14{fill:#FCCC6B;}
	.st15{fill:#F3B94E;}
	.st16{fill:#FBB03C;}
</style>
<g>
	<g>
		<defs>
			
				<ellipse id="SVGID_1_" transform="matrix(0.7071 -0.7071 0.7071 0.7071 -215.3905 524.243)" cx="525.12" cy="522.12" rx="442.3" ry="442.3"/>
		</defs>
		<clipPath id="SVGID_2_">
			<use xlink:href="#SVGID_1_"  style="overflow:visible;"/>
		</clipPath>
		
			<ellipse transform="matrix(0.7071 -0.7071 0.7071 0.7071 -215.3905 524.243)" class="st0" cx="525.12" cy="522.12" rx="442.3" ry="442.3"/>
		<g class="st1">
			<path class="st7" d="M521.93,585.01c13.5-0.32,25.72,7.28,37.52,13.86c11.8,6.57,25.51,12.51,38.45,8.64
				c13.57-4.06,21.79-17.45,32.97-26.14c12.19-9.48,27.81-13.24,41.23-20.88c12.64-7.2,23.39-18.13,29.07-31.52
				c5.68-13.39,5.96-29.28-0.52-42.3c-1.72-3.45-3.95-6.97-3.62-10.81c0.29-3.46,2.61-6.38,5.02-8.87
				c6.4-6.61,14.31-12.07,18.65-20.19c3.37-6.31,4.24-13.71,3.76-20.85c-1.36-20.51-14.06-39.9-32.31-49.35
				c-18.25-9.45-41.41-8.63-58.95,2.09c-16.55,10.12-37.43,7.53-54.08,17.48c-27.87,16.65-52.58,38.57-72.45,64.25
				c-8.97,11.6-17.06,24.15-21.46,38.14c-4.4,13.99-4.85,29.63,1.12,43.03c3.13,7.02,7.86,13.18,12.56,19.27
				C505.26,569.11,513.57,578.76,521.93,585.01z"/>
			<g>
				<g>
					<g>
						<path class="st2" d="M445.28,684.62c-6.43,22.96,44.55,54.85,59.77,51.75c23.15-4.73,55.47-29.38,73.45-45.87
							c0.75-13.6,1.53-27.21,2.28-40.81c0.94-17.01,1.91-34.06,4.55-50.89c0.82-5.16,1.76-10.3,2.86-15.4
							c2.65-12.72,6.02-25.27,9.38-37.86c2.77-10.32,5.53-20.67,8.3-30.99c-6.53,5.35-12.56,7.92-20.31,11.39
							c-32.67,14.62-65.88,27.99-99.26,40.93c-10.06,3.88-20.2,7.78-30.85,9.44l-5.26,59.46L445.28,684.62z"/>
					</g>
					<g>
						<path class="st8" d="M450.19,635.76c36.85-6.25,72.78-17.73,105.97-34.76c10.56-5.41,21.52-11.22,32.03-17.6
							c2.65-12.72,6.02-25.27,9.38-37.86c2.77-10.32,5.53-20.67,8.3-30.99c-6.53,5.35-12.56,7.92-20.31,11.39
							c-32.67,14.62-65.88,27.99-99.26,40.93c-10.06,3.88-20.2,7.78-30.85,9.44L450.19,635.76z"/>
					</g>
					<g>
						<path class="st2" d="M387.21,534.7c5.2,20.38,13.7,39.46,30.06,53.25c14.51,12.23,32.99,19.8,51.86,21.61
							c20.89,2,41.86-2.45,61.08-11.1c9.56-4.31,18.7-9.66,27.16-15.79c14.79-10.71,27.77-23.69,39.36-37.75
							c18.83-22.88,35.19-49.66,45.44-78.24c11.64-32.31,15.5-66.94,6.4-100.76c-3.67-13.79-9.67-26.93-17.67-38.78
							c-33.67-49.98-101.17-67.24-154.74-39.56c-27.91,14.44-50.63,38.81-64.83,66.65c-4.51,8.82-8.6,17.95-12.2,27.3
							C380.45,429.95,374.41,484.48,387.21,534.7z"/>
					</g>
					<g>
						<g>
							<path class="st2" d="M583.08,534.97c14.75,13.71,37,18.84,56.21,12.74c16.23-5.15,29.67-18.18,35.65-34.07
								c1.08-2.89,1.91-5.85,2.5-8.92c1-5.34,1.17-10.88,0.05-16.19c-2.84-13.11-14.29-23.69-27.41-26.41
								c-13.15-2.71-27.39,2.14-36.84,11.67l-11.6,23.53L583.08,534.97z"/>
						</g>
					</g>
				</g>
				<g>
					<path class="st9" d="M498.52,458.13c2.63,0.23,6.43-3.82,7.66-10.02c0.65-3.26,0.45-6.56-0.54-9.04
						c-0.34-0.86-1.32-2.89-2.93-3.21c-0.08-0.02-0.16-0.03-0.25-0.04c-2.63-0.23-6.43,3.82-7.66,10.02
						c-0.65,3.26-0.45,6.56,0.54,9.04c0.34,0.86,1.32,2.89,2.93,3.21C498.36,458.11,498.44,458.12,498.52,458.13z"/>
					<path class="st9" d="M419.76,447.52c2.22,0.2,6.1-3.39,7.35-9.68c0.63-3.16,0.44-6.35-0.52-8.76c-0.7-1.73-1.71-2.85-2.77-3.06
						c-0.08-0.02-0.15-0.03-0.23-0.03c-2.22-0.2-6.1,3.39-7.35,9.68c-0.63,3.16-0.44,6.35,0.52,8.76c0.7,1.73,1.71,2.85,2.77,3.06
						C419.61,447.5,419.69,447.51,419.76,447.52L419.76,447.52z"/>
					<path class="st9" d="M458.9,463.35c-1.98-2.35-5.44-3.45-8.76-2.97c-3.38,0.43-6.56,2.71-8.23,5.72
						c-1.75,2.97-2.09,6.87-0.74,10c1.28,3.1,3.99,5.52,7.02,6.02c-2.05-2.22-3.15-4.67-3.52-7.07c-0.37-2.39,0.15-4.64,1.28-6.65
						c1.15-2,2.83-3.59,5.07-4.49C453.27,463,455.95,462.71,458.9,463.35z"/>
				</g>
				<g>
					<path class="st9" d="M520.46,411.76c0.49,0,0.98-0.21,1.34-0.6c0.68-0.75,0.63-1.91-0.12-2.59c-5.5-5.01-13.2-7.6-20.61-6.96
						c-1.01,0.09-1.76,0.98-1.67,1.99s0.98,1.76,1.99,1.67c6.42-0.57,13.07,1.69,17.82,6.02
						C519.57,411.61,520.02,411.77,520.46,411.76z"/>
				</g>
				<g>
					<path class="st9" d="M441.16,398.84c0.41-0.13,0.77-0.4,1.01-0.79c0.53-0.86,0.26-2-0.61-2.52
						c-5.75-3.51-13.06-4.56-19.56-2.82c-0.95,0.27-1.56,1.27-1.3,2.25c0.26,0.98,1.27,1.56,2.25,1.3
						c5.55-1.49,11.79-0.59,16.69,2.41C440.12,398.95,440.67,399,441.16,398.84z"/>
				</g>
				<path class="st10" d="M500.73,439.86c3.88-0.65,4.91,5.38,1.02,6.03C497.86,446.55,496.84,440.52,500.73,439.86z"/>
				<path class="st10" d="M420.73,429.13c3.88-0.65,4.91,5.38,1.02,6.03C417.87,435.82,416.84,429.79,420.73,429.13z"/>
				<g>
					<path class="st11" d="M416.3,493.27c-0.28,7.98,1.64,15.43,5.15,21.66c5.62,9.99,15.32,16.72,26.55,17.12
						c11.5,0.4,21.87-5.94,28.11-15.9c3.69-5.82,5.96-12.89,6.23-20.56c0.01-0.28-0.02-0.55-0.01-0.85l-65.98-2.32
						C416.36,492.73,416.31,493,416.3,493.27z"/>
					<path class="st10" d="M419.05,492.53c7.12,8.09,17.79,13.41,29.86,13.83c12.07,0.42,23.09-4.13,30.76-11.71L419.05,492.53z"/>
					<path class="st12" d="M421.46,514.93c5.62,9.99,15.32,16.72,26.55,17.12c11.5,0.4,21.87-5.94,28.11-15.9
						c-11.18-2.87-22.78-4.14-34.31-3.72C434.97,512.69,428.16,513.53,421.46,514.93z"/>
				</g>
				<path class="st8" d="M493.96,484.9c-0.91,10.03,9.39,19.15,23,20.39c13.61,1.23,25.39-5.89,26.29-15.92
					c0.91-10.03-9.39-19.15-23-20.39C506.65,467.75,494.87,474.87,493.96,484.9z"/>
				<path class="st8" d="M388.14,461.97c-0.61,6.77,6.34,12.94,15.53,13.77c9.19,0.83,17.14-3.98,17.76-10.75
					c0.61-6.77-6.34-12.94-15.53-13.77C396.71,450.39,388.76,455.2,388.14,461.97z"/>
			</g>
			<path class="st13" d="M635.13,685.41c-21.72-6.22-45.58-17.94-54.26-20.27c-32.76,46.92-103.91,54-135.36-4.29
				c-32.24,6.06-74.69,13.94-112.13,23.44c-0.35,48.17-25.39,104.04-31.24,151.14c-9.4,75.64-22.04,128.81-35.35,203.93
				c-13.99,78.95-13.97,145.16-28.6,250.08c-10.01,71.78-15.81,155.36-20.99,265.05c138.41,56.93,307.46,53.74,562.58,5
				c-1.41-122.96-41.67-393.02-54.86-515.66C696.67,923.94,672.77,802.85,635.13,685.41z"/>
			<path class="st7" d="M655.76,463.35c-28.81-0.12-55.34,33.01-64.21-51.03c-1.4-13.23-3.41-26.34-5.74-39.42
				c-2.33-13.08-7.82-26.61-18.81-33.29c-25.54-15.54-56.46,15.38-85.65,10.64c-13.31-2.16-27.18-19.29-40.02-15.07
				c-5.85,1.93-15.84,9.82-20.13,14.4c-13.36,14.27-18.97,34.31-28.96,51.34c-2.89-18.45-11.33-44.93-3.28-61.6
				c4.67-9.67,11.73-20.73,16.57-30.3c13.93-27.56,11.41-46.61,34.77-65.94c13.03-10.79,44.43-21.65,60.21-16.16
				c7.83,2.72,15.07,7.47,23.22,8.84c11.05,1.85,22.01-2.73,32.61-6.47c15.75-5.55,32.57-9.43,48.94-6.41
				c16.37,3.01,32.2,14.16,37.31,30.73c3.86,12.52,1.71,27.45,9.55,37.73c7.21,9.46,20.12,11.26,29.93,17.67
				c20.86,13.63,23.41,44.59,18.61,69.83C694.75,409.92,675.4,439.23,655.76,463.35z"/>
			<path class="st14" d="M447.1,655.61c0,0,0.84,41.38-0.42,71.51c-3.17,75.33-16.99,108.05-19.83,183.44
				c-1.13,30.15-0.73,60.3-0.17,90.45c0.33,18.79,0.71,37.56,0.81,56.34c0.08,16.63-0.06,33.25-0.69,49.89
				c-0.05,1.41-0.09,2.82-0.16,4.24c-1.86,44.52-6.2,88.92-12.02,133.1c-1.3,9.96-2.7,19.89-4.17,29.81
				c-1.62,11.19-3.34,22.35-5.11,33.5c-0.1,0.6-0.18,1.19-0.28,1.79c-0.17,1.06-0.33,2.13-0.52,3.21
				c-2.87,17.97-5.81,36.15-8.78,54.54c-18.05,111.25-37.44,229.05-49.53,338.26c-0.76,6.9-153.45-51.43-206.23-98.19
				c-5.75-5.11,33.56-155.07,54.53-237.83c3.64-14.36,6.72-26.7,8.92-35.91c0.21-0.87,0.4-1.7,0.59-2.5
				c0.04-0.13,0.05-0.25,0.09-0.36c0.92-3.89,1.64-7.11,2.16-9.55c0.12-0.64,0.24-1.23,0.34-1.76c0.09-0.4,0.15-0.77,0.2-1.11
				c-12.31-1.31-39.05-6.11-51.21-9.68c-31.08-9.11-60.89-26.06-76.28-61.68c-6.42-14.85-10.32-32.94-10.78-55.08
				c-0.26-16.27,0.5-32.84,2.17-49.59c0.14-1.41,0.28-2.85,0.44-4.26c4.72-43.45,15.42-87.96,29.97-131.32
				c49.62-148.09,143.96-282.78,197.52-315.86C362.35,651.7,447.1,655.61,447.1,655.61z"/>
			<path class="st14" d="M774.22,1328.97c0.06,0.41,0.11,0.81,0.18,1.22c2.67,18.16,5.76,39.66,9.03,62.85
				c15.77,111.76,35.82,262.52,32.23,265.45c-24.07,19.31-130.5,59.11-232.03,63.06c-3.17-1.38-14.38-180.9-25.04-365.79
				c-1.45-24.92-2.86-49.95-4.27-74.65c-3.85-67.98-7.46-133.48-10.38-187.68c-0.57-10.52-1.12-20.6-1.63-30.2
				c-3.48-64.73-5.67-107.21-5.57-107.76c17.14-91.51,44.01-296.94,44.01-296.94s96.26,14.97,191.53,73.24
				c53.65,32.81,134.56,206.16,159.41,397.48c0.78,6.04,1.51,12.12,2.18,18.23c1.99,18.21,3.4,36.58,4.19,55.06
				C941.7,1289.01,848.2,1317.26,774.22,1328.97z"/>
			<path class="st15" d="M862.48,1113.66c-35.34-13.3-73.02-20.34-110.78-20.72c-0.55-3.49-0.34-6.54,0.2-10.04
				c0.85-5.51,1.05-11.13,0.59-16.68C792.33,1074.59,833.16,1085.43,862.48,1113.66z"/>
			<path class="st15" d="M730.57,835.59c-0.68,21.18-2.89,43.1-3.57,64.27c-0.28,8.67-0.55,17.34-0.83,26
				c-1.28,39.97-2.56,79.96-6.01,119.79l28.89-1.27C734.63,975.96,739.18,904.99,730.57,835.59z"/>
			<path class="st15" d="M296.2,844.91c-0.47,21.18,0.55,43.19,0.07,64.37c-0.19,8.67-0.39,17.34-0.58,26.01
				c-0.9,39.98-1.79,79.98-0.51,119.94l-28.78-2.84C284.51,984.84,283.83,913.74,296.2,844.91z"/>
			<path class="st15" d="M129.84,1123.18c28.01-14.36,57.14-26.53,87.03-36.38c14.95-4.93,30.08-9.27,45.37-13.03
				c7.8-1.92,15.63-3.68,23.5-5.28c7.22-1.47,14.05-1.25,21.34-2.39c4.06-0.64,8.19-0.6,12.31-0.57
				c36.16,0.31,73.58,0.9,106.43,16.02c-32.7,9.21-65.83,16.88-99.24,22.98c-32.69,5.97-66.19,6.11-99.25,9.12
				c-18.85,1.71-37.67,4.08-56.2,8.01C157.65,1124.52,143.32,1125.94,129.84,1123.18z"/>
			<path class="st2" d="M339.35,1135.31c2.87,0.25,6.95-0.37,9.47,0.99c3.48,1.9,6.82,6.61,9.71,9.4
				c8.06,7.8,16.33,15.41,24.34,23.29c2.21,2.17,4.37,4.39,6.54,6.6c17.68-20.86,35.07-41.98,52.29-63.23
				c-19.57-14.25-34.51-24.97-41.23-29.48c-3.24-2.18-6.51-4.36-9.75-6.54c-0.89-8.89-2.56-17.67-5.11-26.21
				c-3.16-10.51-8.95-19.05-13.09-29.07c-7.16-17.32-10.88-36.26-16.82-54.09c-1.85-5.53-3.93-11.26-8.06-15.41
				c-0.14-0.15-0.31-0.29-0.45-0.44c-4.17-3.83-10.66-5.69-15.54-2.81c-3.75,2.24-5.67,6.7-6.12,11.03
				c-0.75,7.66,1.08,15.93,2.73,23.34c1.08,4.76,2.66,9.82,2.76,14.73c0.16,7.48-4.67,2.84-8.24-0.67
				c-3.88-3.87-7.32-8.15-10.52-12.59c-6.34-8.78-11.67-18.23-17.65-27.27c0,0-40.47-61.13-40.54-61.2
				c-3.97-6.02-14.22-5.67-18.17,0.2c-5.5,8.16,3.85,17.86,7.6,24.66c6.26,11.37,12.46,22.78,18.64,34.2
				c4.4,8.2,8.81,16.42,13.16,24.64c2.54,4.77,6.98,8.8,9.66,13.68c0.99,1.81,4.1,6.63,2.01,8.72c-2.16,2.14-5.59-1.96-7.2-3.25
				c-3.91-3.14-7.69-6.41-11.44-9.76c-7.2-6.48-14.15-13.26-21.04-20.09c-14.08-13.85-28.01-27.98-43.68-40.08
				c-0.65-0.52-1.33-0.93-1.98-1.28c-4.58-4.11-12.5-3.2-16.05,1.85c-6.7,9.52,6.6,19.71,12.21,26
				c9.09,10.11,18.56,19.87,27.67,29.98c6.8,7.53,13.62,15.06,20.42,22.61c2.39,2.63,16.11,12.28,12.86,16.93
				c-2.82,4.08-12.75-5.21-15.28-6.61c-6.08-3.35-12.14-6.77-18.17-10.23c-12.07-6.93-23.96-14.13-35.67-21.66
				c-1.09-0.71-2.22-1.19-3.34-1.48c-3.23-2.25-6.47-4.51-9.68-6.82c-5.79-4.1-14.28-0.8-16.13,6.02
				c-2.7,9.83,9.23,15.03,15.66,19.52c10.23,7.15,20.52,14.16,30.93,21.09c7.33,4.9,14.69,9.73,22.11,14.51
				c3.94,2.55,22.07,12.33,14.03,18.4c-1.58,1.19-5.52-0.15-7.16-0.55c-5.22-1.17-10.05-3.54-15.06-5.39
				c-13.4-4.94-26.88-9.7-40.41-14.25c-7.43-2.51-15.31,4.23-13.95,12.05c1.94,11.37,22.1,13.62,30.84,16.46
				c13.95,4.51,27.71,9.53,41.27,15.07c2.31,0.97,4.65,1.92,6.67,3.4c2.6,1.89,4.59,4.51,6.68,6.98
				c19.05,22.52,47.92,37.4,76.71,42.64C332.27,1134.51,335.81,1135,339.35,1135.31z"/>
			<path class="st14" d="M774.22,1328.97c0.06,0.41,0.11,0.81,0.18,1.22c-14.67-0.85-31.63-2.87-51.22-6.58
				c-44.63-8.42-89.1-17.92-132.59-31.03c-1.02-0.3-2.04-0.62-3.09-0.93c-11.09-3.39-22.15-6.89-33.18-10.54
				c-9.81-3.24-19.59-6.58-29.31-10.03c-52.93-18.77-104.7-40.86-154.03-67.7c-10.46-5.69-20.84-11.6-31.07-17.73
				c-8.63-5.19-14.93-11.61-16.63-21.75c-1.13-6.69-0.37-13.5,0.4-20.25c1.4-12.65,2.83-25.35,4.29-38.02
				c0.56-4.98,1.11-10.05,3.01-14.72c1.29-3.13,3.1-5.69,5.39-7.71c2.57-2.25,5.77-3.82,9.52-4.77
				c64.13-16.47,130.42-19.01,196.42-15.2c7.01,0.4,14,0.88,20.99,1.42c10.33,0.79,20.6,1.72,30.86,2.74
				c11.93,1.19,23.85,2.52,35.7,3.96c6.92,0.84,13.86,1.67,20.8,2.51c26.92,3.27,53.93,6.6,80.91,10.26
				c33.28,4.5,66.48,9.48,99.32,15.45c33.52,6.05,69.34,13.88,99.96,29.27c0.29,0.14,0.55,0.29,0.84,0.42
				c3.15,24.13,5.32,48.62,6.37,73.29C941.7,1289.01,848.2,1317.26,774.22,1328.97z"/>
			<path class="st15" d="M731.57,1084.11c-0.98,3.48-2.81,6.96-4.75,9.92c-29.47,45.01-71.39,80.26-113.41,113.83
				c-20.18,16.12-40.57,32.01-61.99,46.46c-8.56,5.76-17.36,11.42-26.41,16.76c-52.93-18.77-104.7-40.86-154.03-67.7
				c10.11-11.44,21.99-21.37,34.43-30.3c39.37-28.22,84.71-46.83,130.11-63.77c37.65-14.05,75.86-27.14,115.14-35.46
				C677.58,1077.12,704.59,1080.44,731.57,1084.11z"/>
			<path class="st2" d="M796.04,1066.2c-15.31-18.88-34.91-38.92-57.46-49.63c-11.4-5.41-22.76-8.94-43.45-8.52
				c-26.43,0.54-49.72,22.29-72.84,34.33c7.91,10.15,15.8,20.03,23.71,30.18c7.74,9.93,16.21,20.38,28.61,24.52
				c9.99,3.34,17.62-1.95,27.89-4.51c10.27-2.56,33.82-7.08,50.7-4.8C813.58,1095.95,809.55,1082.86,796.04,1066.2z"/>
			<path class="st14" d="M691.37,1100.32c-2.88,43.33-197.52,144.86-278.02,173.07c-0.97,0.34-1.92,0.68-2.9,1
				c-40.69,14.11-82.47,24.83-124.44,34.54c-84.83,19.64-118.24,3.45-130.39-0.12c-31.08-9.11-60.89-26.06-76.28-61.68
				c-6.42-14.85-10.32-32.94-10.78-55.08c-0.26-16.27,0.5-32.84,2.17-49.59c0.14-1.41,0.28-2.85,0.44-4.26
				c3.44-1.91,6.96-3.85,10.51-5.82c28.41-15.76,62.06-24.56,93.58-31.6c62.41-13.97,126.32-24.25,189.41-34.52
				c11.18-1.83,22.41-3.54,33.69-5.13c9.68-1.36,19.38-2.65,29.12-3.79c68.89-8.14,183.31-32.53,211.79-19.94
				C639.29,1037.41,692.4,1084.84,691.37,1100.32z"/>
		</g>
	</g>
	<g>
		<path class="st16" d="M524.81,995.5c-1.39,0-2.52-1.13-2.52-2.52c0-1.39,1.13-2.52,2.52-2.52c4.44,0,8.95-0.07,13.4-0.19
			c1.37-0.03,2.55,1.05,2.59,2.44c0.04,1.39-1.05,2.55-2.44,2.59C533.85,995.43,529.3,995.5,524.81,995.5z M511.35,995.32
			c-0.02,0-0.05,0-0.07,0c-4.5-0.12-9.05-0.31-13.52-0.56c-1.39-0.08-2.45-1.27-2.37-2.65c0.08-1.39,1.28-2.45,2.66-2.37
			c4.42,0.25,8.93,0.44,13.38,0.56c1.39,0.04,2.49,1.2,2.45,2.59C513.83,994.24,512.71,995.32,511.35,995.32z M551.73,994.73
			c-1.33,0-2.44-1.04-2.51-2.37c-0.08-1.39,0.98-2.58,2.37-2.66c4.44-0.25,8.94-0.57,13.36-0.95c1.34-0.12,2.6,0.91,2.72,2.29
			c0.12,1.39-0.91,2.6-2.29,2.72c-4.47,0.38-9.01,0.7-13.5,0.96C551.83,994.73,551.78,994.73,551.73,994.73z M484.46,993.82
			c-0.07,0-0.14,0-0.21-0.01c-4.47-0.38-9.01-0.82-13.47-1.33c-1.38-0.16-2.37-1.4-2.22-2.78c0.15-1.38,1.41-2.37,2.78-2.22
			c4.42,0.5,8.9,0.94,13.33,1.31c1.38,0.12,2.41,1.33,2.3,2.72C486.86,992.83,485.76,993.82,484.46,993.82z M578.56,992.45
			c-1.26,0-2.35-0.95-2.5-2.23c-0.16-1.38,0.83-2.63,2.22-2.79c4.41-0.5,8.88-1.08,13.28-1.71c1.36-0.2,2.65,0.76,2.85,2.14
			c0.2,1.38-0.76,2.65-2.14,2.85c-4.45,0.64-8.97,1.22-13.42,1.72C578.75,992.44,578.66,992.45,578.56,992.45z M457.71,990.8
			c-0.12,0-0.24-0.01-0.36-0.02c-4.44-0.63-8.94-1.34-13.37-2.09c-1.37-0.23-2.29-1.54-2.06-2.91c0.23-1.37,1.53-2.29,2.91-2.06
			c4.38,0.75,8.83,1.45,13.23,2.07c1.38,0.2,2.33,1.47,2.14,2.85C460.02,989.89,458.94,990.8,457.71,990.8z M605.22,988.64
			c-1.2,0-2.27-0.86-2.48-2.09c-0.24-1.37,0.68-2.67,2.05-2.91c4.37-0.75,8.8-1.58,13.16-2.46c1.35-0.28,2.69,0.61,2.97,1.97
			c0.28,1.36-0.61,2.69-1.97,2.97c-4.41,0.89-8.88,1.73-13.31,2.49C605.51,988.62,605.36,988.64,605.22,988.64z M431.16,986.25
			c-0.17,0-0.33-0.02-0.5-0.05c-4.4-0.88-8.85-1.85-13.23-2.86c-1.35-0.31-2.2-1.66-1.89-3.02c0.31-1.35,1.66-2.2,3.02-1.89
			c4.33,1,8.74,1.95,13.09,2.83c1.36,0.27,2.25,1.6,1.97,2.96C433.39,985.42,432.34,986.25,431.16,986.25z M631.61,983.3
			c-1.15,0-2.18-0.79-2.45-1.95c-0.31-1.35,0.53-2.71,1.88-3.02c4.33-1.01,8.71-2.09,13-3.21c1.35-0.35,2.72,0.45,3.07,1.8
			c0.35,1.34-0.45,2.72-1.8,3.07c-4.34,1.14-8.76,2.23-13.14,3.25C631.99,983.28,631.8,983.3,631.61,983.3z M404.92,980.19
			c-0.21,0-0.42-0.03-0.64-0.08c-4.37-1.14-8.76-2.36-13.05-3.61c-1.33-0.39-2.1-1.79-1.71-3.12c0.39-1.33,1.78-2.1,3.12-1.71
			c4.24,1.24,8.58,2.44,12.91,3.58c1.34,0.35,2.15,1.73,1.8,3.07C407.06,979.44,406.04,980.19,404.92,980.19z M657.66,976.47
			c-1.09,0-2.09-0.71-2.41-1.81c-0.39-1.33,0.37-2.73,1.71-3.12c4.26-1.25,8.57-2.58,12.8-3.96c1.33-0.43,2.74,0.29,3.17,1.62
			c0.43,1.32-0.29,2.74-1.62,3.17c-4.27,1.39-8.62,2.74-12.93,4C658.13,976.43,657.9,976.47,657.66,976.47z M379.08,972.63
			c-0.26,0-0.52-0.04-0.78-0.12c-4.29-1.39-8.62-2.86-12.86-4.37c-1.31-0.47-1.99-1.91-1.53-3.22c0.47-1.31,1.9-1.99,3.22-1.53
			c4.2,1.5,8.48,2.95,12.72,4.33c1.32,0.43,2.05,1.85,1.62,3.17C381.13,971.95,380.14,972.63,379.08,972.63z M683.27,968.14
			c-1.03,0-2-0.64-2.37-1.67c-0.47-1.31,0.22-2.75,1.52-3.22c4.19-1.5,8.41-3.07,12.55-4.69c1.29-0.5,2.76,0.14,3.26,1.43
			c0.5,1.29-0.13,2.75-1.43,3.26c-4.18,1.63-8.45,3.23-12.68,4.74C683.84,968.09,683.55,968.14,683.27,968.14z M353.63,963.56
			c-0.3,0-0.61-0.06-0.91-0.17c-4.2-1.64-8.43-3.35-12.58-5.11c-1.28-0.54-1.88-2.02-1.34-3.3c0.54-1.28,2.02-1.88,3.3-1.34
			c4.1,1.73,8.29,3.43,12.44,5.05c1.3,0.5,1.94,1.96,1.43,3.26C355.59,962.95,354.63,963.56,353.63,963.56z M708.32,958.37
			c-0.98,0-1.91-0.58-2.32-1.54c-0.54-1.28,0.06-2.76,1.34-3.3c4.09-1.73,8.2-3.54,12.22-5.38c1.26-0.58,2.76-0.02,3.34,1.24
			c0.58,1.26,0.02,2.76-1.24,3.34c-4.06,1.86-8.22,3.69-12.35,5.44C708.98,958.31,708.65,958.37,708.32,958.37z M328.76,953.05
			c-0.35,0-0.71-0.07-1.05-0.23c-4.1-1.87-8.22-3.83-12.26-5.82c-1.25-0.61-1.76-2.12-1.15-3.37c0.61-1.25,2.12-1.76,3.37-1.15
			c3.99,1.97,8.07,3.9,12.13,5.76c1.26,0.58,1.82,2.07,1.24,3.34C330.62,952.5,329.71,953.05,328.76,953.05z M732.74,947.2
			c-0.93,0-1.82-0.52-2.26-1.41c-0.61-1.25-0.1-2.76,1.15-3.37c3.96-1.95,7.97-4,11.9-6.07c1.23-0.65,2.75-0.18,3.4,1.05
			c0.65,1.23,0.18,2.75-1.05,3.4c-3.97,2.1-8.02,4.17-12.03,6.14C733.49,947.12,733.11,947.2,732.74,947.2z M304.54,941.13
			c-0.4,0-0.8-0.09-1.17-0.29c-3.97-2.1-7.97-4.29-11.9-6.51c-1.21-0.68-1.64-2.22-0.95-3.43c0.69-1.21,2.22-1.63,3.43-0.95
			c3.89,2.2,7.85,4.37,11.77,6.44c1.23,0.65,1.7,2.17,1.05,3.4C306.32,940.64,305.45,941.13,304.54,941.13z M756.49,934.64
			c-0.88,0-1.73-0.46-2.19-1.28c-0.68-1.21-0.26-2.75,0.95-3.43c3.87-2.19,7.76-4.46,11.54-6.75c1.19-0.72,2.74-0.34,3.46,0.85
			c0.72,1.19,0.34,2.74-0.85,3.46c-3.83,2.31-7.75,4.61-11.66,6.82C757.33,934.54,756.91,934.64,756.49,934.64z M281.07,927.85
			c-0.44,0-0.89-0.12-1.3-0.36c-3.85-2.32-7.72-4.74-11.5-7.18c-1.17-0.75-1.51-2.31-0.75-3.48c0.75-1.17,2.31-1.51,3.48-0.75
			c3.74,2.41,7.57,4.8,11.38,7.1c1.19,0.72,1.57,2.27,0.85,3.46C282.75,927.41,281.92,927.85,281.07,927.85z M779.5,920.75
			c-0.83,0-1.64-0.41-2.12-1.15c-0.75-1.17-0.41-2.73,0.76-3.48c3.72-2.39,7.47-4.88,11.14-7.4c1.14-0.78,2.71-0.49,3.5,0.65
			c0.79,1.15,0.49,2.71-0.65,3.5c-3.71,2.54-7.5,5.06-11.26,7.48C780.43,920.62,779.96,920.75,779.5,920.75z M258.39,913.25
			c-0.49,0-0.99-0.14-1.42-0.44c-3.72-2.55-7.45-5.18-11.07-7.82c-1.12-0.82-1.37-2.39-0.55-3.52c0.82-1.13,2.39-1.37,3.52-0.55
			c3.58,2.61,7.27,5.21,10.95,7.73c1.15,0.79,1.44,2.35,0.65,3.5C259.99,912.87,259.2,913.25,258.39,913.25z M801.68,905.55
			c-0.78,0-1.54-0.36-2.04-1.04c-0.82-1.12-0.57-2.7,0.55-3.52c3.61-2.63,7.21-5.33,10.71-8.02c1.1-0.85,2.68-0.64,3.53,0.45
			c0.85,1.1,0.65,2.68-0.45,3.53c-3.53,2.73-7.17,5.45-10.82,8.11C802.72,905.4,802.2,905.55,801.68,905.55z M236.6,897.39
			c-0.54,0-1.08-0.17-1.54-0.53c-3.56-2.75-7.12-5.58-10.6-8.43c-1.08-0.88-1.23-2.47-0.35-3.54c0.88-1.07,2.47-1.23,3.54-0.35
			c3.44,2.82,6.97,5.62,10.49,8.34c1.1,0.85,1.3,2.43,0.45,3.53C238.1,897.05,237.35,897.39,236.6,897.39z M822.98,889.12
			c-0.73,0-1.45-0.31-1.95-0.92c-0.88-1.08-0.72-2.66,0.35-3.54c3.45-2.82,6.9-5.73,10.24-8.62c1.05-0.91,2.64-0.8,3.55,0.25
			c0.91,1.05,0.8,2.64-0.25,3.55c-3.38,2.93-6.86,5.86-10.35,8.71C824.11,888.93,823.54,889.12,822.98,889.12z M215.75,880.32
			c-0.58,0-1.17-0.2-1.65-0.62c-3.41-2.95-6.8-5.99-10.1-9.02c-1.02-0.94-1.09-2.53-0.15-3.56c0.94-1.03,2.53-1.09,3.56-0.15
			c3.26,3,6.63,6,9.99,8.92c1.05,0.91,1.16,2.5,0.25,3.55C217.16,880.03,216.46,880.32,215.75,880.32z M843.32,871.49
			c-0.68,0-1.36-0.27-1.86-0.82c-0.94-1.02-0.87-2.62,0.15-3.56c3.28-3.01,6.56-6.11,9.74-9.19c1-0.97,2.59-0.94,3.56,0.05
			c0.97,1,0.95,2.59-0.05,3.56c-3.21,3.12-6.52,6.24-9.84,9.29C844.54,871.27,843.93,871.49,843.32,871.49z M195.92,862.11
			c-0.63,0-1.27-0.24-1.76-0.71c-3.24-3.15-6.46-6.37-9.57-9.57c-0.97-1-0.95-2.59,0.05-3.56c0.99-0.97,2.59-0.95,3.56,0.05
			c3.08,3.17,6.26,6.35,9.47,9.47c1,0.97,1.02,2.56,0.05,3.56C197.23,861.85,196.57,862.11,195.92,862.11z M862.64,852.73
			c-0.63,0-1.27-0.24-1.76-0.71c-1-0.97-1.02-2.56-0.05-3.56c3.1-3.19,6.2-6.46,9.2-9.73c0.94-1.02,2.54-1.09,3.56-0.15
			c1.02,0.94,1.09,2.53,0.15,3.56c-3.04,3.31-6.17,6.62-9.3,9.84C863.95,852.48,863.29,852.73,862.64,852.73z M177.15,842.8
			c-0.68,0-1.36-0.27-1.85-0.81c-3.04-3.31-6.07-6.71-9.01-10.1c-0.91-1.05-0.8-2.64,0.25-3.55c1.05-0.91,2.64-0.79,3.55,0.25
			c2.91,3.35,5.91,6.71,8.91,9.99c0.94,1.02,0.87,2.62-0.15,3.56C178.37,842.58,177.76,842.8,177.15,842.8z M880.86,832.9
			c-0.59,0-1.17-0.2-1.65-0.62c-1.05-0.91-1.16-2.5-0.25-3.55c2.93-3.37,5.83-6.82,8.64-10.24c0.88-1.07,2.47-1.23,3.54-0.35
			c1.08,0.88,1.23,2.47,0.35,3.54c-2.83,3.46-5.77,6.94-8.73,10.35C882.27,832.61,881.57,832.9,880.86,832.9z M159.51,822.47
			c-0.73,0-1.45-0.31-1.95-0.92c-2.86-3.5-5.7-7.06-8.42-10.59c-0.85-1.1-0.65-2.68,0.46-3.53c1.1-0.85,2.68-0.64,3.53,0.45
			c2.69,3.49,5.5,7.01,8.33,10.47c0.88,1.08,0.72,2.66-0.35,3.54C160.64,822.28,160.07,822.47,159.51,822.47z M897.94,812.06
			c-0.54,0-1.08-0.17-1.54-0.53c-1.1-0.85-1.3-2.43-0.45-3.53c2.7-3.5,5.41-7.1,8.05-10.72c0.82-1.13,2.39-1.37,3.52-0.55
			c1.12,0.82,1.37,2.39,0.55,3.52c-2.66,3.66-5.4,7.3-8.13,10.84C899.43,811.73,898.69,812.06,897.94,812.06z M143.07,801.17
			c-0.78,0-1.54-0.36-2.04-1.04c-2.63-3.62-5.26-7.33-7.8-11.04c-0.79-1.15-0.49-2.71,0.65-3.5c1.15-0.78,2.71-0.49,3.5,0.65
			c2.52,3.67,5.12,7.35,7.72,10.93c0.82,1.12,0.57,2.7-0.55,3.52C144.1,801.02,143.58,801.17,143.07,801.17z M913.81,790.28
			c-0.49,0-0.99-0.14-1.42-0.44c-1.15-0.79-1.44-2.35-0.65-3.5c2.51-3.66,5.01-7.42,7.42-11.17c0.75-1.17,2.31-1.5,3.48-0.75
			c1.17,0.75,1.51,2.31,0.75,3.48c-2.44,3.79-4.96,7.58-7.5,11.29C915.4,789.89,914.61,790.28,913.81,790.28z M127.87,778.99
			c-0.83,0-1.64-0.41-2.12-1.15c-2.42-3.76-4.83-7.62-7.16-11.46c-0.72-1.19-0.34-2.74,0.85-3.46c1.19-0.72,2.74-0.34,3.46,0.85
			c2.3,3.8,4.68,7.62,7.08,11.34c0.75,1.17,0.42,2.73-0.75,3.48C128.81,778.86,128.33,778.99,127.87,778.99z M928.41,767.61
			c-0.44,0-0.89-0.12-1.3-0.36c-1.19-0.72-1.57-2.27-0.85-3.46c2.3-3.8,4.58-7.69,6.78-11.58c0.69-1.21,2.22-1.63,3.43-0.95
			c1.21,0.69,1.64,2.22,0.95,3.43c-2.22,3.93-4.53,7.86-6.85,11.7C930.1,767.18,929.26,767.61,928.41,767.61z M113.96,755.99
			c-0.88,0-1.73-0.46-2.19-1.28c-2.21-3.9-4.4-7.89-6.49-11.85c-0.65-1.23-0.18-2.75,1.05-3.4c1.23-0.65,2.75-0.18,3.4,1.05
			c2.07,3.92,4.23,7.86,6.42,11.72c0.69,1.21,0.26,2.75-0.95,3.43C114.8,755.89,114.38,755.99,113.96,755.99z M941.71,744.14
			c-0.4,0-0.8-0.09-1.18-0.29c-1.23-0.65-1.7-2.17-1.05-3.4c2.1-3.96,4.15-7.98,6.1-11.95c0.62-1.25,2.13-1.76,3.37-1.15
			c1.25,0.61,1.76,2.12,1.15,3.37c-1.98,4.01-4.05,8.08-6.17,12.08C943.48,743.66,942.61,744.14,941.71,744.14z M101.39,732.25
			c-0.93,0-1.82-0.52-2.26-1.4c-1.98-4.01-3.93-8.12-5.8-12.19c-0.58-1.26-0.02-2.76,1.24-3.34c1.27-0.58,2.76-0.02,3.34,1.24
			c1.85,4.03,3.78,8.09,5.74,12.06c0.61,1.25,0.1,2.76-1.15,3.37C102.14,732.16,101.76,732.25,101.39,732.25z M953.64,719.93
			c-0.35,0-0.71-0.07-1.05-0.23c-1.26-0.58-1.82-2.07-1.24-3.34c1.87-4.07,3.68-8.21,5.41-12.29c0.54-1.28,2.02-1.88,3.3-1.34
			c1.28,0.54,1.88,2.02,1.34,3.3c-1.75,4.12-3.59,8.3-5.47,12.42C955.51,719.39,954.6,719.93,953.64,719.93z M90.21,707.84
			c-0.98,0-1.91-0.58-2.32-1.54c-1.74-4.11-3.45-8.32-5.09-12.5c-0.5-1.29,0.13-2.75,1.43-3.26c1.3-0.5,2.76,0.13,3.26,1.43
			c1.61,4.13,3.31,8.29,5.03,12.36c0.54,1.28-0.05,2.76-1.34,3.3C90.87,707.77,90.53,707.84,90.21,707.84z M964.16,695.07
			c-0.3,0-0.61-0.06-0.91-0.17c-1.3-0.5-1.94-1.96-1.43-3.26c1.63-4.18,3.21-8.41,4.7-12.59c0.47-1.31,1.91-2,3.22-1.52
			c1.31,0.47,1.99,1.91,1.53,3.22c-1.51,4.22-3.1,8.5-4.75,12.72C966.12,694.46,965.17,695.07,964.16,695.07z M80.42,682.79
			c-1.03,0-2-0.64-2.37-1.67c-1.52-4.25-2.99-8.57-4.38-12.81c-0.43-1.32,0.29-2.74,1.62-3.17c1.32-0.43,2.74,0.29,3.17,1.61
			c1.37,4.2,2.82,8.47,4.33,12.67c0.47,1.31-0.21,2.75-1.52,3.22C80.99,682.75,80.71,682.79,80.42,682.79z M973.24,669.63
			c-0.26,0-0.52-0.04-0.78-0.12c-1.32-0.43-2.05-1.85-1.62-3.17c1.37-4.22,2.7-8.53,3.95-12.8c0.39-1.33,1.8-2.1,3.12-1.71
			c1.33,0.39,2.1,1.79,1.71,3.12c-1.27,4.32-2.61,8.67-3.99,12.94C975.29,668.95,974.31,669.63,973.24,669.63z M72.08,657.19
			c-1.09,0-2.09-0.71-2.41-1.81c-1.27-4.32-2.49-8.7-3.63-13.04c-0.35-1.34,0.45-2.72,1.79-3.07c1.35-0.36,2.72,0.45,3.07,1.79
			c1.13,4.29,2.34,8.63,3.59,12.9c0.39,1.33-0.37,2.73-1.71,3.12C72.56,657.15,72.32,657.19,72.08,657.19z M980.82,643.78
			c-0.21,0-0.43-0.03-0.64-0.08c-1.35-0.35-2.15-1.73-1.8-3.07c1.12-4.29,2.2-8.67,3.21-13c0.31-1.35,1.66-2.2,3.02-1.88
			c1.36,0.31,2.2,1.67,1.88,3.02c-1.01,4.38-2.11,8.81-3.24,13.14C982.96,643.03,981.93,643.78,980.82,643.78z M65.23,631.15
			c-1.15,0-2.18-0.79-2.45-1.95c-1.02-4.38-1.99-8.83-2.88-13.23c-0.28-1.36,0.61-2.69,1.97-2.97c1.35-0.28,2.69,0.6,2.97,1.97
			c0.88,4.35,1.84,8.75,2.84,13.09c0.31,1.35-0.53,2.71-1.88,3.02C65.61,631.12,65.42,631.15,65.23,631.15z M986.9,617.55
			c-0.17,0-0.33-0.02-0.5-0.05c-1.36-0.27-2.25-1.6-1.97-2.96c0.88-4.4,1.71-8.83,2.46-13.17c0.24-1.37,1.54-2.29,2.91-2.06
			c1.37,0.24,2.29,1.54,2.06,2.91c-0.75,4.38-1.59,8.86-2.48,13.31C989.12,616.72,988.07,617.55,986.9,617.55z M59.89,604.75
			c-1.2,0-2.27-0.86-2.48-2.09c-0.77-4.45-1.48-8.95-2.11-13.37c-0.2-1.38,0.76-2.65,2.14-2.85c1.38-0.2,2.65,0.76,2.85,2.14
			c0.62,4.37,1.33,8.82,2.09,13.23c0.24,1.37-0.68,2.67-2.05,2.91C60.17,604.74,60.03,604.75,59.89,604.75z M991.46,591.01
			c-0.12,0-0.24-0.01-0.36-0.02c-1.38-0.2-2.33-1.47-2.14-2.85c0.63-4.43,1.2-8.9,1.7-13.29c0.16-1.38,1.41-2.38,2.78-2.22
			c1.38,0.16,2.37,1.4,2.22,2.79c-0.5,4.43-1.08,8.95-1.72,13.43C993.77,590.1,992.69,591.01,991.46,591.01z M56.06,578.1
			c-1.26,0-2.35-0.95-2.5-2.23c-0.51-4.49-0.97-9.02-1.35-13.47c-0.12-1.39,0.91-2.6,2.29-2.72c1.39-0.12,2.6,0.91,2.72,2.29
			c0.38,4.4,0.83,8.89,1.33,13.33c0.16,1.38-0.83,2.63-2.22,2.79C56.26,578.09,56.16,578.1,56.06,578.1z M994.49,564.25
			c-0.07,0-0.14,0-0.21-0.01c-1.39-0.12-2.41-1.34-2.3-2.72c0.38-4.45,0.69-8.95,0.94-13.36c0.08-1.39,1.3-2.44,2.66-2.37
			c1.39,0.08,2.45,1.27,2.37,2.65c-0.25,4.46-0.57,9-0.95,13.5C996.88,563.26,995.78,564.25,994.49,564.25z M53.77,551.27
			c-1.33,0-2.44-1.03-2.51-2.37c-0.26-4.49-0.45-9.04-0.58-13.53c-0.04-1.39,1.05-2.55,2.44-2.59c1.41-0.04,2.55,1.05,2.59,2.44
			c0.13,4.44,0.32,8.94,0.58,13.38c0.08,1.39-0.98,2.58-2.37,2.66C53.86,551.27,53.81,551.27,53.77,551.27z M996,537.37
			c-0.02,0-0.05,0-0.07,0c-1.39-0.04-2.48-1.2-2.45-2.59c0.12-4.47,0.19-8.97,0.19-13.39v-0.89c0-1.39,1.13-2.52,2.52-2.52
			c1.39,0,2.52,1.13,2.52,2.52v0.89c0,4.47-0.06,9.02-0.19,13.53C998.48,536.28,997.36,537.37,996,537.37z M52.99,524.35
			c-1.39,0-2.52-1.13-2.52-2.52v-0.45c0-4.36,0.06-8.76,0.18-13.09c0.04-1.39,1.23-2.48,2.58-2.45c1.39,0.04,2.49,1.2,2.45,2.59
			c-0.12,4.28-0.18,8.64-0.18,12.95v0.45C55.51,523.22,54.38,524.35,52.99,524.35z M995.97,509.55c-1.36,0-2.47-1.08-2.51-2.44
			c-0.13-4.42-0.33-8.92-0.59-13.38c-0.08-1.39,0.98-2.58,2.37-2.66c1.36-0.07,2.58,0.98,2.66,2.37c0.26,4.51,0.46,9.06,0.59,13.53
			c0.04,1.39-1.05,2.55-2.44,2.59C996.02,509.55,996,509.55,995.97,509.55z M53.72,497.43c-0.05,0-0.09,0-0.14,0
			c-1.39-0.08-2.45-1.26-2.37-2.65c0.25-4.48,0.56-9.02,0.94-13.5c0.12-1.39,1.33-2.43,2.72-2.3c1.38,0.12,2.41,1.33,2.3,2.72
			c-0.37,4.44-0.68,8.93-0.93,13.36C56.16,496.39,55.05,497.43,53.72,497.43z M994.41,482.67c-1.29,0-2.39-0.99-2.5-2.3
			c-0.39-4.44-0.84-8.92-1.35-13.33c-0.16-1.38,0.83-2.63,2.21-2.79c1.37-0.16,2.63,0.83,2.79,2.21c0.51,4.45,0.97,8.98,1.36,13.47
			c0.12,1.38-0.9,2.61-2.29,2.72C994.55,482.66,994.48,482.67,994.41,482.67z M55.97,470.6c-0.09,0-0.19,0-0.29-0.02
			c-1.38-0.16-2.37-1.4-2.22-2.78c0.5-4.46,1.07-8.97,1.7-13.43c0.19-1.38,1.47-2.33,2.85-2.14c1.38,0.19,2.34,1.47,2.14,2.85
			c-0.62,4.41-1.19,8.88-1.69,13.29C58.32,469.65,57.23,470.6,55.97,470.6z M991.32,455.92c-1.23,0-2.31-0.9-2.49-2.16
			c-0.64-4.41-1.34-8.86-2.1-13.23c-0.24-1.37,0.68-2.67,2.05-2.91c1.37-0.23,2.67,0.68,2.91,2.05c0.77,4.41,1.48,8.91,2.13,13.37
			c0.2,1.38-0.76,2.65-2.13,2.85C991.56,455.91,991.44,455.92,991.32,455.92z M59.74,443.93c-0.14,0-0.28-0.01-0.43-0.04
			c-1.37-0.23-2.29-1.53-2.06-2.91c0.75-4.4,1.58-8.88,2.47-13.31c0.27-1.36,1.61-2.25,2.96-1.97c1.36,0.27,2.25,1.6,1.97,2.96
			c-0.88,4.38-1.7,8.81-2.44,13.17C62.01,443.07,60.95,443.93,59.74,443.93z M986.71,429.39c-1.17,0-2.22-0.82-2.46-2.02
			c-0.88-4.33-1.84-8.73-2.86-13.08c-0.32-1.35,0.52-2.71,1.88-3.02c1.37-0.32,2.71,0.53,3.03,1.88c1.03,4.4,2,8.85,2.89,13.23
			c0.28,1.36-0.6,2.69-1.97,2.97C987.05,429.37,986.88,429.39,986.71,429.39z M65.03,417.53c-0.19,0-0.38-0.02-0.57-0.06
			c-1.36-0.31-2.2-1.66-1.89-3.02c1-4.35,2.09-8.78,3.23-13.15c0.35-1.35,1.72-2.15,3.07-1.8c1.35,0.35,2.15,1.73,1.8,3.07
			c-1.13,4.32-2.2,8.7-3.19,13.01C67.22,416.74,66.18,417.53,65.03,417.53z M980.59,403.16c-1.11,0-2.13-0.75-2.43-1.88
			c-1.14-4.31-2.35-8.65-3.6-12.9c-0.39-1.33,0.37-2.73,1.7-3.13c1.33-0.39,2.73,0.37,3.13,1.7c1.27,4.3,2.49,8.68,3.64,13.04
			c0.36,1.34-0.45,2.72-1.79,3.08C981.02,403.14,980.8,403.16,980.59,403.16z M71.84,391.47c-0.23,0-0.47-0.03-0.71-0.1
			c-1.33-0.39-2.1-1.79-1.71-3.12c1.25-4.29,2.59-8.64,3.98-12.94c0.43-1.32,1.84-2.05,3.17-1.62c1.32,0.43,2.05,1.85,1.62,3.17
			c-1.38,4.25-2.7,8.56-3.94,12.8C73.93,390.76,72.93,391.47,71.84,391.47z M972.97,377.33c-1.06,0-2.05-0.67-2.39-1.74
			c-1.38-4.22-2.84-8.48-4.34-12.67c-0.47-1.31,0.21-2.75,1.52-3.22c1.3-0.47,2.75,0.21,3.22,1.52c1.52,4.24,3,8.55,4.39,12.81
			c0.43,1.32-0.29,2.74-1.61,3.17C973.49,377.29,973.23,377.33,972.97,377.33z M80.14,365.81c-0.28,0-0.57-0.05-0.84-0.15
			c-1.31-0.47-1.99-1.91-1.53-3.22c1.51-4.24,3.1-8.52,4.73-12.73c0.5-1.3,1.96-1.94,3.26-1.44c1.3,0.5,1.94,1.96,1.44,3.26
			c-1.62,4.16-3.19,8.4-4.68,12.59C82.14,365.17,81.17,365.81,80.14,365.81z M963.87,351.99c-1,0-1.96-0.61-2.34-1.6
			c-1.6-4.1-3.3-8.26-5.04-12.36c-0.54-1.28,0.05-2.76,1.33-3.3c1.28-0.55,2.76,0.05,3.3,1.33c1.76,4.15,3.48,8.35,5.1,12.49
			c0.51,1.29-0.13,2.76-1.43,3.26C964.49,351.93,964.18,351.99,963.87,351.99z M89.92,340.64c-0.33,0-0.66-0.06-0.98-0.2
			c-1.28-0.54-1.88-2.02-1.34-3.3c1.76-4.16,3.59-8.34,5.46-12.43c0.58-1.26,2.07-1.82,3.34-1.24c1.27,0.58,1.82,2.07,1.24,3.34
			c-1.85,4.04-3.66,8.18-5.4,12.29C91.83,340.06,90.9,340.64,89.92,340.64z M953.37,327.29c-0.95,0-1.87-0.54-2.29-1.47
			c-1.84-4-3.77-8.06-5.75-12.06c-0.62-1.25-0.1-2.76,1.14-3.37c1.25-0.62,2.76-0.11,3.37,1.14c2,4.04,3.95,8.14,5.81,12.19
			c0.58,1.26,0.03,2.76-1.24,3.34C954.08,327.21,953.72,327.29,953.37,327.29z M101.13,316.08c-0.37,0-0.75-0.08-1.11-0.26
			c-1.25-0.61-1.76-2.12-1.15-3.37c1.99-4.05,4.06-8.12,6.16-12.09c0.65-1.23,2.17-1.7,3.4-1.05c1.23,0.65,1.7,2.17,1.05,3.4
			c-2.07,3.93-4.12,7.95-6.09,11.96C102.95,315.56,102.06,316.08,101.13,316.08z M941.47,303.21c-0.9,0-1.77-0.49-2.23-1.34
			c-2.08-3.92-4.24-7.86-6.43-11.72c-0.69-1.21-0.26-2.75,0.95-3.43c1.2-0.69,2.74-0.26,3.43,0.95c2.21,3.89,4.4,7.88,6.5,11.84
			c0.65,1.23,0.18,2.75-1.04,3.4C942.27,303.11,941.87,303.21,941.47,303.21z M113.73,292.22c-0.42,0-0.85-0.11-1.24-0.33
			c-1.21-0.68-1.64-2.22-0.95-3.43c2.21-3.91,4.51-7.85,6.84-11.71c0.72-1.19,2.27-1.57,3.46-0.85c1.19,0.72,1.57,2.27,0.86,3.46
			c-2.3,3.81-4.58,7.71-6.77,11.58C115.46,291.76,114.6,292.22,113.73,292.22z M928.2,279.84c-0.85,0-1.68-0.43-2.16-1.21
			c-2.3-3.8-4.69-7.62-7.09-11.34c-0.76-1.17-0.42-2.73,0.75-3.48c1.16-0.75,2.73-0.42,3.48,0.75c2.43,3.76,4.84,7.62,7.17,11.46
			c0.72,1.19,0.34,2.74-0.85,3.46C929.1,279.72,928.65,279.84,928.2,279.84z M127.66,269.13c-0.47,0-0.94-0.13-1.36-0.4
			c-1.17-0.75-1.51-2.31-0.76-3.48c2.44-3.79,4.96-7.59,7.49-11.29c0.78-1.15,2.35-1.44,3.5-0.66c1.15,0.79,1.44,2.35,0.66,3.5
			c-2.51,3.66-5,7.42-7.41,11.17C129.3,268.72,128.49,269.13,127.66,269.13z M913.62,257.25c-0.8,0-1.59-0.38-2.08-1.09
			c-2.5-3.64-5.1-7.32-7.73-10.92c-0.82-1.12-0.57-2.7,0.55-3.52s2.7-0.57,3.52,0.55c2.65,3.64,5.28,7.35,7.81,11.04
			c0.79,1.15,0.5,2.71-0.65,3.5C914.61,257.11,914.11,257.25,913.62,257.25z M142.88,246.88c-0.51,0-1.03-0.16-1.48-0.48
			c-1.12-0.82-1.37-2.39-0.56-3.52c2.65-3.64,5.38-7.29,8.12-10.85c0.85-1.1,2.43-1.3,3.53-0.45c1.1,0.85,1.3,2.43,0.46,3.53
			c-2.71,3.52-5.42,7.13-8.03,10.73C144.43,246.52,143.66,246.88,142.88,246.88z M897.77,235.52c-0.75,0-1.5-0.34-1.99-0.98
			c-2.7-3.49-5.5-7.01-8.34-10.47c-0.88-1.07-0.72-2.66,0.35-3.54c1.07-0.88,2.66-0.73,3.54,0.35c2.87,3.49,5.7,7.05,8.43,10.58
			c0.85,1.1,0.65,2.68-0.45,3.53C898.85,235.35,898.31,235.52,897.77,235.52z M159.34,225.54c-0.56,0-1.12-0.19-1.59-0.57
			c-1.08-0.88-1.24-2.47-0.36-3.54c2.84-3.47,5.77-6.95,8.72-10.36c0.91-1.05,2.5-1.17,3.55-0.25c1.05,0.91,1.16,2.5,0.25,3.55
			c-2.92,3.37-5.82,6.82-8.63,10.25C160.8,225.23,160.07,225.54,159.34,225.54z M880.7,214.71c-0.7,0-1.4-0.29-1.9-0.87
			c-2.91-3.35-5.92-6.71-8.93-9.98c-0.94-1.02-0.87-2.62,0.15-3.56c1.02-0.94,2.62-0.87,3.56,0.15c3.04,3.3,6.08,6.7,9.02,10.09
			c0.91,1.05,0.8,2.64-0.25,3.55C881.88,214.51,881.29,214.71,880.7,214.71z M176.99,205.18c-0.61,0-1.22-0.22-1.7-0.66
			c-1.03-0.94-1.09-2.53-0.15-3.56c3.03-3.3,6.16-6.62,9.29-9.85c0.97-1,2.56-1.02,3.56-0.05c1,0.97,1.02,2.56,0.05,3.56
			c-3.1,3.19-6.19,6.47-9.19,9.74C178.34,204.91,177.67,205.18,176.99,205.18z M862.47,194.9c-0.66,0-1.31-0.25-1.8-0.76
			c-3.12-3.2-6.31-6.39-9.48-9.46c-1-0.97-1.02-2.56-0.06-3.56c0.97-1,2.56-1.02,3.56-0.05c3.21,3.11,6.43,6.33,9.58,9.56
			c0.97,1,0.95,2.59-0.05,3.56C863.74,194.66,863.11,194.9,862.47,194.9z M195.75,185.86c-0.66,0-1.31-0.25-1.8-0.76
			c-0.97-1-0.95-2.59,0.05-3.56c3.19-3.11,6.5-6.24,9.83-9.3c1.02-0.94,2.62-0.88,3.56,0.15c0.94,1.02,0.87,2.62-0.15,3.56
			c-3.29,3.03-6.57,6.13-9.73,9.2C197.01,185.63,196.38,185.86,195.75,185.86z M843.14,176.15c-0.61,0-1.22-0.22-1.7-0.66
			c-3.26-2.99-6.63-5.99-10-8.91c-1.05-0.91-1.17-2.5-0.26-3.55c0.91-1.05,2.5-1.17,3.55-0.26c3.41,2.95,6.81,5.98,10.11,9.01
			c1.02,0.94,1.09,2.53,0.15,3.56C844.5,175.88,843.82,176.15,843.14,176.15z M215.57,167.65c-0.7,0-1.4-0.29-1.9-0.87
			c-0.91-1.05-0.8-2.64,0.25-3.55c3.39-2.95,6.87-5.88,10.34-8.72c1.08-0.88,2.66-0.72,3.54,0.35c0.88,1.08,0.72,2.66-0.35,3.54
			c-3.43,2.81-6.87,5.72-10.23,8.63C216.74,167.44,216.15,167.65,215.57,167.65z M822.78,158.52c-0.56,0-1.12-0.19-1.59-0.57
			c-3.44-2.81-6.97-5.61-10.5-8.33c-1.1-0.85-1.3-2.43-0.46-3.53c0.85-1.1,2.43-1.31,3.53-0.46c3.57,2.75,7.14,5.58,10.61,8.42
			c1.08,0.88,1.24,2.47,0.36,3.54C824.23,158.21,823.5,158.52,822.78,158.52z M236.38,150.59c-0.75,0-1.5-0.34-1.99-0.98
			c-0.85-1.1-0.65-2.68,0.45-3.53c3.54-2.74,7.18-5.47,10.81-8.12c1.12-0.82,2.7-0.57,3.52,0.55c0.82,1.12,0.57,2.7-0.55,3.52
			c-3.6,2.62-7.2,5.33-10.7,8.03C237.46,150.42,236.92,150.59,236.38,150.59z M801.43,142.07c-0.51,0-1.03-0.16-1.48-0.48
			c-3.59-2.61-7.28-5.21-10.96-7.72c-1.15-0.79-1.44-2.35-0.66-3.5c0.79-1.15,2.35-1.44,3.5-0.66c3.72,2.54,7.44,5.17,11.08,7.81
			c1.12,0.82,1.37,2.39,0.56,3.52C802.98,141.71,802.21,142.07,801.43,142.07z M258.12,134.75c-0.8,0-1.59-0.38-2.08-1.09
			c-0.79-1.15-0.49-2.71,0.65-3.5c3.69-2.53,7.48-5.05,11.25-7.49c1.17-0.75,2.73-0.42,3.48,0.75c0.75,1.17,0.42,2.73-0.75,3.48
			c-3.73,2.41-7.48,4.9-11.14,7.41C259.11,134.6,258.61,134.75,258.12,134.75z M779.17,126.86c-0.47,0-0.94-0.13-1.36-0.4
			c-3.74-2.4-7.57-4.79-11.39-7.09c-1.19-0.72-1.57-2.26-0.86-3.46c0.72-1.19,2.27-1.57,3.45-0.86c3.85,2.32,7.73,4.73,11.51,7.17
			c1.17,0.75,1.51,2.31,0.76,3.48C780.81,126.45,780,126.86,779.17,126.86z M280.71,120.17c-0.85,0-1.68-0.43-2.16-1.21
			c-0.72-1.19-0.34-2.74,0.85-3.46c3.83-2.32,7.75-4.62,11.65-6.83c1.21-0.69,2.75-0.26,3.43,0.95c0.69,1.21,0.26,2.75-0.95,3.43
			c-3.86,2.19-7.74,4.46-11.53,6.76C281.61,120.06,281.16,120.17,280.71,120.17z M756.08,112.93c-0.42,0-0.85-0.1-1.24-0.33
			c-3.86-2.18-7.82-4.34-11.78-6.43c-1.23-0.65-1.7-2.17-1.05-3.4c0.65-1.23,2.18-1.7,3.4-1.05c4,2.11,8.01,4.3,11.9,6.5
			c1.21,0.68,1.64,2.22,0.95,3.43C757.81,112.47,756.95,112.93,756.08,112.93z M304.09,106.92c-0.9,0-1.78-0.49-2.23-1.34
			c-0.65-1.23-0.18-2.75,1.05-3.4c3.95-2.1,8-4.17,12.02-6.15c1.24-0.62,2.76-0.11,3.37,1.14c0.62,1.25,0.1,2.76-1.14,3.37
			c-3.98,1.97-7.98,4.01-11.89,6.09C304.89,106.82,304.49,106.92,304.09,106.92z M732.21,100.35c-0.37,0-0.75-0.08-1.11-0.26
			c-3.99-1.96-8.07-3.89-12.13-5.74c-1.27-0.58-1.82-2.07-1.25-3.34c0.58-1.26,2.07-1.82,3.34-1.25c4.11,1.87,8.23,3.83,12.26,5.81
			c1.25,0.61,1.76,2.12,1.15,3.37C734.04,99.83,733.14,100.35,732.21,100.35z M328.17,95.03c-0.95,0-1.87-0.54-2.29-1.47
			c-0.58-1.26-0.02-2.76,1.24-3.34c4.07-1.87,8.22-3.7,12.35-5.45c1.28-0.54,2.76,0.05,3.3,1.33c0.54,1.28-0.05,2.76-1.33,3.3
			c-4.08,1.73-8.19,3.55-12.22,5.39C328.88,94.95,328.52,95.03,328.17,95.03z M707.65,89.15c-0.33,0-0.66-0.06-0.98-0.2
			c-4.1-1.73-8.29-3.43-12.45-5.04c-1.3-0.5-1.94-1.96-1.44-3.26c0.5-1.3,1.96-1.94,3.26-1.44c4.2,1.63,8.44,3.35,12.58,5.09
			c1.28,0.54,1.88,2.02,1.34,3.3C709.57,88.57,708.63,89.15,707.65,89.15z M352.88,84.54c-1.01,0-1.96-0.61-2.34-1.6
			c-0.51-1.29,0.13-2.76,1.43-3.26c4.19-1.64,8.45-3.24,12.68-4.75c1.3-0.47,2.75,0.21,3.22,1.52c0.47,1.31-0.21,2.75-1.52,3.22
			c-4.18,1.5-8.4,3.08-12.54,4.7C353.49,84.48,353.18,84.54,352.88,84.54z M682.47,79.38c-0.28,0-0.56-0.05-0.84-0.15
			c-4.19-1.49-8.47-2.94-12.73-4.32c-1.32-0.43-2.05-1.85-1.62-3.17c0.43-1.32,1.84-2.05,3.17-1.62c4.3,1.39,8.63,2.86,12.86,4.36
			c1.31,0.47,1.99,1.91,1.53,3.22C684.48,78.74,683.51,79.38,682.47,79.38z M378.23,75.45c-1.06,0-2.05-0.68-2.39-1.74
			c-0.43-1.32,0.29-2.74,1.61-3.17c4.28-1.39,8.63-2.74,12.93-4.01c1.33-0.39,2.73,0.37,3.13,1.7c0.39,1.33-0.37,2.73-1.7,3.13
			c-4.26,1.25-8.56,2.59-12.79,3.97C378.75,75.41,378.49,75.45,378.23,75.45z M656.8,71.09c-0.23,0-0.47-0.03-0.71-0.1
			c-4.25-1.24-8.59-2.44-12.91-3.56c-1.35-0.35-2.15-1.73-1.8-3.07c0.35-1.34,1.72-2.15,3.07-1.8c4.36,1.14,8.76,2.35,13.05,3.6
			c1.33,0.39,2.1,1.79,1.71,3.12C658.9,70.38,657.89,71.09,656.8,71.09z M404.06,67.84c-1.12,0-2.14-0.75-2.43-1.88
			c-0.35-1.34,0.45-2.72,1.79-3.08c4.34-1.14,8.76-2.24,13.14-3.26c1.37-0.31,2.71,0.53,3.02,1.88c0.31,1.35-0.53,2.71-1.88,3.02
			c-4.33,1.01-8.7,2.09-13,3.23C404.49,67.82,404.27,67.84,404.06,67.84z M630.75,64.3c-0.19,0-0.38-0.02-0.57-0.06
			c-4.34-1-8.75-1.95-13.09-2.81c-1.36-0.27-2.25-1.6-1.97-2.96c0.27-1.36,1.6-2.24,2.96-1.97c4.39,0.88,8.85,1.84,13.23,2.84
			c1.36,0.31,2.2,1.66,1.89,3.02C632.93,63.51,631.89,64.3,630.75,64.3z M430.28,61.73c-1.17,0-2.22-0.82-2.46-2.02
			c-0.28-1.36,0.6-2.69,1.97-2.97c4.4-0.89,8.88-1.74,13.3-2.5c1.36-0.24,2.67,0.68,2.91,2.05c0.24,1.37-0.68,2.67-2.05,2.91
			c-4.38,0.76-8.8,1.59-13.16,2.48C430.62,61.72,430.45,61.73,430.28,61.73z M604.34,59.02c-0.14,0-0.28-0.01-0.43-0.04
			c-4.39-0.75-8.84-1.44-13.23-2.06c-1.38-0.19-2.33-1.47-2.14-2.84c0.2-1.38,1.48-2.33,2.85-2.14c4.44,0.63,8.94,1.33,13.37,2.08
			c1.37,0.23,2.29,1.53,2.06,2.9C606.61,58.15,605.54,59.02,604.34,59.02z M456.82,57.13c-1.23,0-2.31-0.9-2.49-2.16
			c-0.2-1.38,0.76-2.65,2.13-2.85c4.44-0.64,8.96-1.22,13.42-1.74c1.36-0.15,2.63,0.83,2.79,2.21c0.16,1.38-0.83,2.63-2.21,2.79
			c-4.42,0.51-8.89,1.09-13.28,1.72C457.06,57.13,456.94,57.13,456.82,57.13z M577.68,55.26c-0.09,0-0.19-0.01-0.28-0.02
			c-4.42-0.5-8.9-0.93-13.33-1.3c-1.39-0.11-2.42-1.33-2.3-2.72c0.12-1.39,1.36-2.41,2.72-2.3c4.47,0.37,9.01,0.82,13.47,1.32
			c1.38,0.15,2.38,1.4,2.22,2.78C580.03,54.31,578.94,55.26,577.68,55.26z M483.57,54.06c-1.29,0-2.39-0.99-2.5-2.3
			c-0.12-1.39,0.91-2.6,2.29-2.72c4.46-0.38,9-0.71,13.5-0.97c1.41-0.08,2.58,0.98,2.66,2.37c0.08,1.39-0.98,2.58-2.37,2.66
			c-4.45,0.26-8.95,0.58-13.36,0.96C483.71,54.06,483.64,54.06,483.57,54.06z M550.84,53.02c-0.05,0-0.09,0-0.14,0
			c-4.42-0.24-8.93-0.43-13.38-0.55c-1.39-0.04-2.49-1.19-2.45-2.58c0.04-1.39,1.18-2.48,2.58-2.45c4.5,0.12,9.05,0.3,13.52,0.55
			c1.39,0.08,2.45,1.26,2.38,2.65C553.28,51.98,552.17,53.02,550.84,53.02z M510.45,52.51c-1.36,0-2.47-1.08-2.51-2.44
			c-0.04-1.39,1.05-2.55,2.44-2.59c4.49-0.13,9.05-0.2,13.53-0.21c1.35,0.05,2.52,1.12,2.52,2.51c0,1.39-1.12,2.52-2.51,2.52
			c-4.44,0.01-8.95,0.08-13.39,0.21C510.5,52.51,510.48,52.51,510.45,52.51z"/>
	</g>
</g>
</svg>
