<?xml version="1.0" encoding="utf-8"?>
<!-- Generator: Adobe Illustrator 25.3.1, SVG Export Plug-In . SVG Version: 6.00 Build 0)  -->
<svg version="1.1" id="Layer_1" xmlns="http://www.w3.org/2000/svg" xmlns:xlink="http://www.w3.org/1999/xlink" x="0px" y="0px"
	 viewBox="0 0 1080 1080" style="enable-background:new 0 0 1080 1080;" xml:space="preserve">
<style type="text/css">
	.st0{clip-path:url(#SVGID_2_);fill:#FCE2C3;}
	.st1{clip-path:url(#SVGID_2_);}
	.st2{fill:#603A17;}
	.st3{fill:#F4B9B8;}
	.st4{fill:#FAC0BC;}
	.st5{fill:#FBCFCA;}
	.st6{fill:#252158;}
	.st7{fill:#171644;}
	.st8{fill:#373841;}
	.st9{fill:#FFFFFF;}
	.st10{fill:#010101;}
	.st11{fill:#ADDDD9;}
	.st12{fill:#C59C6D;}
	.st13{fill:#C25353;}
	.st14{fill:#AF4847;}
	.st15{fill:#203D4A;}
	.st16{fill:#D65554;}
	.st17{fill:#F37C7C;}
	.st18{fill:#99A4CE;}
	.st19{fill:#FBB03C;}
</style>
<g>
	<g>
		<defs>
			<circle id="SVGID_1_" cx="521.8" cy="514.77" r="451.63"/>
		</defs>
		<clipPath id="SVGID_2_">
			<use xlink:href="#SVGID_1_"  style="overflow:visible;"/>
		</clipPath>
		<circle class="st0" cx="521.8" cy="514.77" r="451.63"/>
		<g class="st1">
			<g>
				
					<ellipse transform="matrix(0.9881 -0.1539 0.1539 0.9881 -47.733 90.0413)" class="st2" cx="557.53" cy="353.23" rx="84.78" ry="107.7"/>
				<polygon class="st10" points="411.14,608.2 580.71,615.08 532.25,715.43 427.18,711.24 				"/>
				<path class="st11" d="M173.79,1632.33c53.48,40.35,638.37,35.17,637.98,6.47c-0.97-69.96-11.76-145.54-21.79-219.5
					c-5.68-41.81-11.12-83.1-14.38-122.57c-7.72-92.98-33.82-385.94-37.5-437.75c-2.37-33.78-8.3-110.43-9-119.55
					c-4.29-3.02-8.68-5.91-13.14-8.68c-0.13-0.07-0.26-0.15-0.41-0.24c-3.28-1.94-7.05-4.15-11.11-6.49
					c-0.04-0.04-0.06-0.06-0.09-0.06c-17.43-10.15-40.31-23.08-55.44-30.25c-37.84-17.96-76.73-28.95-117.63-34.85
					c-68.08-9.79-135.57,2.03-185.14,15.87c-44.48,12.41-74.55,26.45-77.71,27.95c-0.18,0.1-0.28,0.14-0.28,0.14
					s28.35,12.14,35.95,58.83c32.34,198.59-65.24,356.67-65.24,356.67s-24.69,172.87-38.98,261.03
					C190.79,1435.31,166.32,1626.69,173.79,1632.33z"/>
				<g>
					<path class="st5" d="M408.3,514.47c1.86,10.28,3.67,20.57,5.51,30.84c0.12,0.61,0.22,1.25,0.32,1.86
						c0.05,0.29,0.11,0.55,0.16,0.84c2.44,13.62,4.86,27.23,6.53,40.92c0.69,5.49,1.24,11.02,1.63,16.56
						c0.45,6.19,0.69,12.41,0.75,18.62c0.18,11.88-0.15,23.77-0.51,35.64c-0.21,6.71-0.3,13.41-0.35,20.11
						c-0.05,7.76-3.35,16.14-0.19,23.68c4,9.53,13.14,14.47,21.2,20.07c8.77,6.09,18.33,11.09,28.33,14.83
						c19.62,7.34,41.77,10.09,62.07,3.85c38.82-11.92,28.53-54.6,28.4-85.51c0,0-0.04-8.56-0.04-8.56l-0.06-22.63l-0.12-32.21
						c-11.1-2.72-21.49-7.76-31.79-12.77c-34.16-16.71-68.09-33.84-101.36-52.27c-0.9-0.49-1.75-0.97-2.59-1.43
						C419.5,523.2,414.03,520.02,408.3,514.47z"/>
				</g>
				<g>
					<path class="st4" d="M562.15,656.78c-38.44-9.93-75.43-25.32-109.02-46.34c-10.68-6.67-21.77-13.82-32.31-21.51
						c-1.66-13.7-4.09-27.29-6.52-40.91c-2-11.17-3.99-22.38-5.99-33.55c6.43,6.25,12.58,9.52,20.47,13.89
						c33.26,18.42,67.2,35.56,101.36,52.26c10.29,5.02,20.68,10.05,31.8,12.77L562.15,656.78z"/>
				</g>
				<g>
					<g>
						<path class="st5" d="M428.72,522.86c-17.53,12.25-41.69,14.38-61,5.13c-16.31-7.8-28.53-23.49-32.49-41.09
							c-0.71-3.19-1.15-6.43-1.32-9.75c-0.27-5.77,0.37-11.62,2.33-17.04c4.92-13.37,18.52-22.82,32.72-23.75
							c14.23-0.92,28.5,6.28,37.04,17.69l8.74,26.46L428.72,522.86z"/>
					</g>
				</g>
				<path class="st13" d="M434.05,1733.3c-18.33,27.5-207.56-54.22-270.39-80.2c-47.59-19.68-30.32-47.96-25.21-84.78
					c15.03-108.5,33.25-201.92,51.17-301.81c6.83-38.11,13.63-77.15,20.21-118.31c0.27-1.7,0.53-3.37,0.8-5.06
					c-8.02,26.47-22.59,80.87-28.64,99.79c-34.37,107.7-89.37,362.05-146.65,371.21c-9.88,1.58-118.86-36.75-123.74-50.41
					c-34.37-96.24,72.18-449.03,89.37-492.66c29.79-75.62,123.9-270.28,148.94-302.47c48.12-61.87,204.24-98.21,211.96-100.37
					c22.5-6.39,45.21-12.14,68.06-17.23c22.62,53.67,28.18,106.46,33.96,164.39C494.66,1124.53,448.47,1711.67,434.05,1733.3z"/>
				<g>
					<polygon class="st8" points="484.47,718.19 482.79,726.92 481.12,735.81 478.32,750.45 476.67,759.21 472.07,783.36 
						470.46,791.82 464.6,822.66 369.89,665.49 376.47,656.34 380.98,650.07 388.91,639.07 393.4,632.83 400.16,623.46 
						404.59,617.3 411.14,608.2 					"/>
					<g>
						<path class="st9" d="M482.79,726.92l-1.67,8.89c-14.87-18.86-29.4-37.97-43.61-57.31c-13.08-17.8-26.95-35.47-37.35-55.04
							l4.42-6.16c5.22,10.22,11.55,19.8,18.22,29.19C442.19,673.76,462.19,700.57,482.79,726.92z"/>
						<path class="st9" d="M478.32,750.45l-1.65,8.75c-16.89-19.94-33.48-40.15-49.24-60.95c-14.23-18.77-27.59-38.31-38.52-59.19
							l4.49-6.23c5.09,9.99,10.75,19.68,16.82,29.12c16.59,25.8,36.02,49.66,55.48,73.3C469.87,740.35,474.09,745.41,478.32,750.45z
							"/>
						<path class="st9" d="M472.07,783.36l-1.6,8.46c-19.64-21.38-37.74-44.18-54.12-68.15c-9.65-14.12-18.7-28.64-27.11-43.54
							c-4.26-7.52-8.34-15.12-12.26-22.8c-0.16-0.32-0.34-0.66-0.5-0.99l4.51-6.28c1.17,2.27,2.31,4.56,3.48,6.83
							c4.42,8.55,9.03,16.96,13.84,25.27c17,29.35,36.48,57.26,58.2,83.29C461.57,771.54,466.78,777.52,472.07,783.36z"/>
					</g>
				</g>
				<path class="st14" d="M225.53,1194.81c-9.97,24.38-21.77,48.99-35.91,71.7c6.83-38.11,13.63-77.15,20.21-118.31
					c4.19-9.46,44.96-103.46,56.94-200.87C271.36,1066.49,246.15,1144.4,225.53,1194.81z"/>
				<path class="st13" d="M1261.27,1066.49c-41.82,58.55-350.11,391.84-444.54,197.06c-1.37-2.84-3.07-7.15-5-12.51
					c-10.2-28.3-26.56-85.65-33.29-107.9c0.27,1.7,0.53,3.37,0.8,5.06c0.53,3.35,1.08,6.67,1.6,9.99
					c6.07,37.51,12.33,73.3,18.61,108.32c17.92,99.88,36.14,193.31,51.17,301.81c5.11,36.82,22.39,65.1-25.21,84.78
					c-62.83,25.98-252.06,107.7-270.39,80.2c-9.14-13.7-1.7-257.74-8.68-510.99c-4.03-146.38-32.42-293.69-21.15-406.91
					c5.77-57.93,11.34-110.72,33.96-164.39c22.85,5.09,45.55,10.84,68.06,17.23c7.72,2.15,163.84,38.5,211.96,100.37
					c25.05,32.19,133.39,300.18,133.39,300.18s92.73-69.2,203.94-116.86C1192.52,945.04,1272.72,1050.45,1261.27,1066.49z"/>
				<g>
					<polygon class="st8" points="504.61,718.19 506.28,726.92 507.95,735.81 510.75,750.45 512.4,759.21 517,783.36 518.61,791.82 
						524.47,822.66 619.18,665.49 612.6,656.34 608.09,650.07 600.16,639.07 595.67,632.83 588.91,623.46 584.49,617.3 
						577.93,608.2 					"/>
					<g>
						<path class="st9" d="M506.28,726.92l1.67,8.89c14.87-18.86,29.4-37.97,43.61-57.31c13.08-17.8,26.95-35.47,37.35-55.04
							l-4.42-6.16c-5.22,10.22-11.55,19.8-18.22,29.19C546.88,673.76,526.88,700.57,506.28,726.92z"/>
						<path class="st9" d="M510.75,750.45l1.65,8.75c16.89-19.94,33.48-40.15,49.24-60.95c14.23-18.77,27.59-38.31,38.52-59.19
							l-4.49-6.23c-5.09,9.99-10.75,19.68-16.82,29.12c-16.59,25.8-36.02,49.66-55.48,73.3
							C519.2,740.35,514.99,745.41,510.75,750.45z"/>
						<path class="st9" d="M517,783.36l1.6,8.46c19.64-21.38,37.74-44.18,54.12-68.15c9.65-14.12,18.7-28.64,27.11-43.54
							c4.26-7.52,8.34-15.12,12.26-22.8c0.16-0.32,0.34-0.66,0.5-0.99l-4.51-6.28c-1.17,2.27-2.31,4.56-3.48,6.83
							c-4.42,8.55-9.03,16.96-13.84,25.27c-17,29.35-36.48,57.26-58.2,83.29C527.5,771.54,522.3,777.52,517,783.36z"/>
					</g>
				</g>
				<g>
					<path class="st5" d="M628.02,553.96c-8.47,20.68-20.21,39.49-39.46,51.59c-17.07,10.73-37.61,15.98-57.73,15.11
						c-22.26-0.97-43.67-8.73-62.61-20.67c-9.43-5.94-18.25-12.91-26.25-20.61c-13.98-13.44-25.73-29.01-35.85-45.5
						c-16.44-26.84-29.71-57.41-36.28-88.98c-7.49-35.7-6.46-72.69,8.09-106.94c5.89-13.97,14.14-26.91,24.29-38.19
						c42.77-47.62,116.31-55.85,168.59-18.85c27.23,19.29,47.55,48.28,58.39,79.65c3.44,9.94,6.41,20.15,8.82,30.51
						C650.54,444.77,648.87,503,628.02,553.96z"/>
				</g>
				<g>
					<g>
						<g>
							<path class="st15" d="M519.82,458.27c-2.8,0.14-6.67-4.31-7.74-10.93c-0.56-3.49-0.22-6.98,0.93-9.58
								c0.4-0.9,1.52-3.02,3.23-3.29c0.09-0.01,0.18-0.02,0.26-0.03c2.8-0.14,6.67,4.31,7.74,10.93c0.56,3.49,0.22,6.98-0.93,9.58
								c-0.4,0.9-1.52,3.02-3.23,3.29C520,458.26,519.91,458.27,519.82,458.27z"/>
							<path class="st15" d="M603.84,450.12c-2.37,0.12-6.34-3.84-7.42-10.57c-0.55-3.38-0.22-6.76,0.9-9.27
								c0.81-1.81,1.92-2.96,3.06-3.14c0.08-0.01,0.16-0.02,0.25-0.03c2.37-0.12,6.34,3.84,7.42,10.57c0.54,3.38,0.22,6.76-0.9,9.27
								c-0.81,1.81-1.92,2.96-3.06,3.14C604,450.11,603.92,450.12,603.84,450.12L603.84,450.12z"/>
							<path class="st15" d="M561.68,465.38c2.2-2.41,5.91-3.45,9.41-2.81c3.57,0.59,6.85,3.14,8.51,6.4
								c1.74,3.22,1.95,7.37,0.39,10.64c-1.48,3.24-4.45,5.7-7.69,6.11c2.26-2.27,3.53-4.83,4.01-7.36
								c0.48-2.52,0.03-4.93-1.09-7.11c-1.14-2.17-2.86-3.92-5.2-4.97C567.66,465.23,564.83,464.81,561.68,465.38z"/>
						</g>
						<g>
							<path class="st15" d="M522.41,397.79c-3.95-1.94-8.43-3.09-12.95-3.34c-4.73-0.26-9.5,0.48-13.8,2.14
								c-3.36,1.3-5.04,5.08-3.75,8.45c0.65,1.69,2,3.05,3.67,3.72c0.66,0.26,1.36,0.42,2.07,0.46c0.92,0.05,1.83-0.09,2.7-0.43
								c2.61-1.01,5.52-1.45,8.42-1.3c2.76,0.15,5.48,0.85,7.87,2.04c0.8,0.39,1.65,0.61,2.53,0.66c2.61,0.14,5.05-1.29,6.21-3.64
								C526.98,403.31,525.65,399.39,522.41,397.79z"/>
							<path class="st15" d="M602.61,384.2c-1.52-0.32-3.08-0.53-4.66-0.61c-6.93-0.37-13.85,1.54-19.48,5.39
								c-2.97,2.03-3.73,6.11-1.69,9.08c0.89,1.3,2.22,2.23,3.73,2.62c0.43,0.11,0.87,0.18,1.31,0.2c1.43,0.08,2.86-0.33,4.04-1.13
								c3.22-2.2,7.36-3.34,11.36-3.13c0.91,0.05,1.8,0.17,2.67,0.35c0.34,0.07,0.67,0.11,1.01,0.13c3.23,0.17,6.07-2,6.74-5.17
								C608.38,388.46,606.15,384.99,602.61,384.2z"/>
						</g>
						<path class="st9" d="M518.2,438.79c-4.1-0.85-5.42,5.52-1.32,6.36C520.98,446.01,522.3,439.64,518.2,438.79z"/>
						<path class="st9" d="M603.54,430.57c-4.1-0.85-5.42,5.52-1.32,6.36C606.32,437.78,607.64,431.42,603.54,430.57z"/>
						<g>
							<path class="st16" d="M612.65,497.65c1.15,11.35-0.89,22.15-5.31,31.35c-7.07,14.77-20.27,25.28-36.24,26.9
								c-16.36,1.66-31.73-6.41-41.57-20.01c-5.81-7.95-9.71-17.81-10.82-28.72c-0.04-0.39-0.03-0.79-0.07-1.21l93.83-9.51
								C612.52,496.87,612.61,497.25,612.65,497.65z"/>
							<path class="st9" d="M608.67,496.84c-9.39,12.21-24.1,20.79-41.27,22.53c-17.17,1.74-33.3-3.72-44.95-13.79L608.67,496.84z"
								/>
							<path class="st17" d="M607.34,529c-7.07,14.77-20.27,25.28-36.24,26.9c-16.36,1.66-31.73-6.41-41.57-20.01
								c15.66-5.15,32.08-8.05,48.56-8.53C587.87,527.07,597.66,527.63,607.34,529z"/>
						</g>
					</g>
					<g>
						<path class="st4" d="M514.57,484.08c0.57,10.68-10.73,19.96-25.22,20.73c-14.5,0.77-26.71-7.26-27.28-17.94
							c-0.57-10.68,10.73-19.96,25.22-20.73C501.79,465.37,514.01,473.4,514.57,484.08z"/>
						<path class="st4" d="M636.83,466.72c0.38,7.21-7.24,13.48-17.03,14c-9.79,0.52-18.04-4.9-18.42-12.11
							c-0.38-7.21,7.24-13.48,17.03-14C628.2,454.08,636.44,459.51,636.83,466.72z"/>
					</g>
				</g>
				<path class="st14" d="M811.73,1251.04c-10.2-28.3-26.56-85.65-33.29-107.9c0.27,1.7,0.53,3.37,0.8,5.06
					c0.53,3.35,1.08,6.67,1.6,9.99l-3.07-16.09l-16.64-248.87c0,0,52.41,234.87,53.14,314.66
					C814.34,1216.01,813.13,1233.56,811.73,1251.04z"/>
				<path class="st2" d="M361.25,309.95c-4.28-16.61,1.15-35.03,11.9-47.68c10.75-12.65,26.19-19.9,41.95-22.5
					c15.76-2.6,31.9-0.86,47.6,2.31c15.12,3.06,30.26,7.46,45.6,6.54c18.83-1.13,37.05-10.69,49.46-25.94
					c11.75-14.44,37.01-12.31,52.29-2.23c15.28,10.08,30.34,27.78,33.49,46.79c3.02,18.23,1.31,48.6-27.21,65.3
					c-33.61,19.69-139.32,12.71-153.59,12.36c-14.28-0.35-29.61,3.38-39.04,14.89c-18.71,22.86-22.36,57.29-23.68,87.82
					c-11.04-6.25-21.56-8.84-34-8.78c-5.48,0.03-11.45,0.46-18.13,5.31c-11.8-22.84-18.74-47.37-24.14-72.82
					c-2.68-12.62-4.54-25.66-2.95-38.46c0.6-4.88,1.76-9.8,4.37-13.82c3.93-6.06,10.79-9.35,17.63-10.07
					C349.62,308.24,354.61,307.99,361.25,309.95z"/>
			</g>
		</g>
	</g>
	<g>
		<path class="st19" d="M521.88,998.95c-1.42,0-2.57-1.15-2.57-2.57c0-1.42,1.15-2.57,2.57-2.57c4.53,0,9.14-0.07,13.68-0.2
			c1.43-0.03,2.6,1.08,2.64,2.5c0.04,1.42-1.08,2.6-2.5,2.64C531.11,998.88,526.46,998.95,521.88,998.95z M508.13,998.77
			c-0.02,0-0.05,0-0.07,0c-4.6-0.13-9.25-0.32-13.81-0.58c-1.42-0.08-2.5-1.29-2.42-2.71c0.08-1.42,1.29-2.5,2.71-2.42
			c4.52,0.25,9.11,0.44,13.66,0.57c1.42,0.04,2.54,1.22,2.5,2.64C510.66,997.66,509.52,998.77,508.13,998.77z M549.36,998.17
			c-1.35,0-2.49-1.06-2.56-2.42c-0.08-1.42,1-2.63,2.42-2.71c4.54-0.26,9.12-0.58,13.64-0.97c1.42-0.11,2.66,0.93,2.78,2.34
			c0.12,1.41-0.93,2.66-2.34,2.78c-4.57,0.39-9.2,0.72-13.79,0.98C549.46,998.17,549.41,998.17,549.36,998.17z M480.68,997.24
			c-0.07,0-0.14,0-0.22-0.01c-4.56-0.38-9.19-0.84-13.76-1.36c-1.41-0.16-2.42-1.43-2.27-2.84c0.16-1.41,1.44-2.42,2.84-2.27
			c4.52,0.51,9.1,0.96,13.61,1.34c1.41,0.12,2.47,1.36,2.35,2.78C483.13,996.22,482,997.24,480.68,997.24z M576.76,995.83
			c-1.29,0-2.4-0.97-2.55-2.28c-0.16-1.41,0.85-2.68,2.26-2.84c4.5-0.51,9.07-1.1,13.56-1.74c1.41-0.2,2.71,0.77,2.91,2.18
			c0.2,1.41-0.78,2.71-2.18,2.91c-4.55,0.65-9.16,1.24-13.71,1.76C576.96,995.83,576.86,995.83,576.76,995.83z M453.36,994.15
			c-0.12,0-0.24-0.01-0.36-0.03c-4.53-0.64-9.13-1.36-13.66-2.14c-1.4-0.24-2.34-1.57-2.1-2.97c0.24-1.4,1.57-2.34,2.97-2.1
			c4.48,0.77,9.03,1.48,13.51,2.12c1.41,0.2,2.38,1.5,2.18,2.91C455.72,993.22,454.62,994.15,453.36,994.15z M603.98,991.94
			c-1.23,0-2.31-0.88-2.53-2.14c-0.24-1.4,0.7-2.73,2.1-2.97c4.46-0.77,8.99-1.62,13.44-2.52c1.39-0.28,2.75,0.62,3.03,2.01
			c0.28,1.39-0.62,2.75-2.01,3.03c-4.5,0.91-9.08,1.77-13.59,2.54C604.27,991.93,604.12,991.94,603.98,991.94z M426.26,989.51
			c-0.17,0-0.34-0.02-0.51-0.05c-4.49-0.9-9.03-1.88-13.51-2.92c-1.38-0.32-2.25-1.7-1.93-3.08c0.32-1.38,1.71-2.24,3.08-1.93
			c4.43,1.02,8.93,1.99,13.37,2.89c1.39,0.28,2.29,1.64,2.01,3.03C428.53,988.66,427.46,989.51,426.26,989.51z M630.93,986.5
			c-1.17,0-2.23-0.8-2.5-1.99c-0.32-1.38,0.54-2.76,1.92-3.09c4.42-1.03,8.89-2.13,13.28-3.28c1.37-0.36,2.78,0.46,3.14,1.83
			c0.36,1.37-0.46,2.78-1.83,3.14c-4.43,1.16-8.95,2.28-13.42,3.32C631.32,986.48,631.12,986.5,630.93,986.5z M399.47,983.32
			c-0.21,0-0.43-0.03-0.65-0.08c-4.46-1.17-8.94-2.41-13.32-3.69c-1.36-0.4-2.14-1.83-1.74-3.19c0.4-1.36,1.82-2.15,3.19-1.74
			c4.34,1.27,8.77,2.5,13.18,3.65c1.37,0.36,2.19,1.76,1.84,3.14C401.65,982.55,400.61,983.32,399.47,983.32z M657.53,979.52
			c-1.11,0-2.14-0.73-2.47-1.85c-0.4-1.36,0.38-2.79,1.74-3.19c4.34-1.27,8.74-2.63,13.07-4.04c1.35-0.44,2.8,0.3,3.24,1.65
			c0.44,1.35-0.3,2.8-1.65,3.24c-4.37,1.42-8.82,2.8-13.21,4.08C658.01,979.48,657.77,979.52,657.53,979.52z M373.07,975.6
			c-0.26,0-0.53-0.04-0.79-0.13c-4.38-1.42-8.8-2.92-13.13-4.47c-1.34-0.48-2.04-1.95-1.56-3.28c0.48-1.34,1.95-2.03,3.28-1.56
			c4.28,1.53,8.65,3.01,12.99,4.42c1.35,0.44,2.09,1.89,1.65,3.24C375.16,974.9,374.16,975.6,373.07,975.6z M683.68,971.02
			c-1.06,0-2.04-0.66-2.42-1.71c-0.48-1.34,0.22-2.81,1.56-3.29c4.28-1.53,8.59-3.14,12.81-4.79c1.32-0.52,2.81,0.14,3.33,1.46
			c0.52,1.32-0.14,2.81-1.46,3.33c-4.27,1.67-8.63,3.29-12.95,4.84C684.26,970.97,683.97,971.02,683.68,971.02z M347.09,966.34
			c-0.31,0-0.63-0.06-0.93-0.18c-4.29-1.67-8.61-3.42-12.85-5.21c-1.31-0.55-1.92-2.06-1.37-3.37c0.55-1.31,2.06-1.92,3.37-1.37
			c4.19,1.77,8.47,3.51,12.71,5.16c1.32,0.52,1.98,2,1.46,3.33C349.09,965.72,348.11,966.34,347.09,966.34z M709.25,961.04
			c-1,0-1.95-0.59-2.37-1.57c-0.55-1.31,0.06-2.82,1.36-3.37c4.17-1.77,8.37-3.62,12.48-5.49c1.29-0.59,2.82-0.02,3.41,1.27
			c0.59,1.29,0.02,2.82-1.27,3.41c-4.15,1.9-8.39,3.77-12.61,5.56C709.93,960.98,709.59,961.04,709.25,961.04z M321.69,955.61
			c-0.36,0-0.72-0.08-1.07-0.23c-4.18-1.91-8.39-3.91-12.52-5.94c-1.27-0.63-1.8-2.17-1.17-3.44c0.63-1.27,2.17-1.8,3.44-1.17
			c4.08,2.01,8.25,3.99,12.38,5.88c1.29,0.59,1.86,2.12,1.27,3.41C323.6,955.05,322.67,955.61,321.69,955.61z M734.19,949.63
			c-0.95,0-1.86-0.53-2.31-1.43c-0.63-1.27-0.1-2.81,1.17-3.44c4.06-2,8.14-4.09,12.15-6.2c1.26-0.66,2.81-0.18,3.47,1.07
			c0.66,1.26,0.18,2.81-1.07,3.47c-4.05,2.14-8.18,4.25-12.28,6.27C734.96,949.55,734.57,949.63,734.19,949.63z M296.97,943.43
			c-0.41,0-0.82-0.1-1.2-0.3c-4.06-2.15-8.15-4.38-12.15-6.65c-1.24-0.7-1.67-2.27-0.97-3.5c0.7-1.23,2.27-1.67,3.5-0.97
			c3.96,2.24,8,4.45,12.02,6.58c1.26,0.66,1.74,2.22,1.07,3.47C298.78,942.94,297.89,943.43,296.97,943.43z M758.44,936.81
			c-0.9,0-1.77-0.47-2.24-1.31c-0.7-1.24-0.26-2.8,0.97-3.5c3.94-2.23,7.9-4.55,11.78-6.89c1.22-0.74,2.8-0.34,3.53,0.87
			c0.73,1.22,0.34,2.8-0.87,3.53c-3.92,2.37-7.93,4.71-11.91,6.97C759.3,936.71,758.87,936.81,758.44,936.81z M272.99,929.87
			c-0.45,0-0.91-0.12-1.33-0.37c-3.92-2.37-7.88-4.84-11.74-7.33c-1.19-0.77-1.54-2.36-0.77-3.55c0.77-1.19,2.36-1.54,3.55-0.77
			c3.83,2.47,7.74,4.9,11.62,7.25c1.22,0.73,1.61,2.31,0.87,3.53C274.71,929.43,273.86,929.87,272.99,929.87z M781.93,922.62
			c-0.85,0-1.67-0.42-2.16-1.18c-0.77-1.19-0.42-2.78,0.77-3.55c3.8-2.45,7.63-4.99,11.38-7.55c1.17-0.8,2.77-0.5,3.57,0.67
			c0.8,1.17,0.5,2.77-0.67,3.57c-3.79,2.59-7.65,5.16-11.5,7.63C782.89,922.49,782.41,922.62,781.93,922.62z M249.85,914.97
			c-0.5,0-1.01-0.15-1.45-0.45c-3.79-2.59-7.59-5.28-11.3-7.98c-1.15-0.84-1.4-2.44-0.57-3.59c0.83-1.15,2.44-1.4,3.59-0.57
			c3.67,2.67,7.43,5.33,11.18,7.9c1.17,0.8,1.47,2.4,0.67,3.57C251.47,914.58,250.67,914.97,249.85,914.97z M804.59,907.11
			c-0.79,0-1.58-0.37-2.08-1.06c-0.83-1.15-0.58-2.76,0.57-3.59c3.67-2.67,7.35-5.42,10.93-8.19c1.12-0.87,2.74-0.66,3.61,0.46
			c0.87,1.12,0.66,2.74-0.46,3.61c-3.63,2.8-7.34,5.58-11.05,8.28C805.64,906.95,805.11,907.11,804.59,907.11z M227.59,898.77
			c-0.55,0-1.1-0.17-1.57-0.54c-3.62-2.8-7.26-5.69-10.83-8.61c-1.1-0.9-1.26-2.52-0.36-3.62c0.9-1.1,2.52-1.26,3.62-0.36
			c3.52,2.89,7.13,5.75,10.71,8.52c1.12,0.87,1.33,2.48,0.46,3.6C229.12,898.43,228.36,898.77,227.59,898.77z M826.34,890.33
			c-0.74,0-1.48-0.32-1.99-0.94c-0.9-1.1-0.74-2.72,0.36-3.62c3.52-2.88,7.03-5.84,10.46-8.8c1.07-0.93,2.7-0.81,3.63,0.26
			c0.93,1.07,0.81,2.7-0.26,3.63c-3.46,3-7.01,5.99-10.57,8.9C827.48,890.14,826.91,890.33,826.34,890.33z M206.31,881.35
			c-0.6,0-1.2-0.21-1.68-0.63c-3.47-3.01-6.94-6.1-10.32-9.21c-1.05-0.96-1.11-2.59-0.15-3.63c0.96-1.04,2.59-1.11,3.63-0.15
			c3.34,3.07,6.78,6.14,10.21,9.11c1.07,0.93,1.19,2.55,0.26,3.63C207.74,881.05,207.03,881.35,206.31,881.35z M847.1,872.33
			c-0.7,0-1.39-0.28-1.9-0.83c-0.96-1.05-0.89-2.67,0.16-3.63c3.35-3.08,6.7-6.23,9.94-9.39c1.02-0.99,2.64-0.96,3.63,0.05
			c0.99,1.02,0.96,2.65-0.05,3.63c-3.28,3.18-6.66,6.38-10.05,9.49C848.35,872.11,847.73,872.33,847.1,872.33z M186.05,862.74
			c-0.65,0-1.29-0.24-1.79-0.73c-3.29-3.2-6.58-6.48-9.77-9.77c-0.99-1.02-0.97-2.64,0.05-3.63c1.02-0.99,2.64-0.97,3.63,0.05
			c3.16,3.25,6.42,6.51,9.67,9.67c1.02,0.99,1.04,2.62,0.05,3.63C187.39,862.48,186.72,862.74,186.05,862.74z M866.83,853.18
			c-0.65,0-1.29-0.24-1.79-0.73c-1.02-0.99-1.04-2.62-0.05-3.64c3.16-3.24,6.32-6.59,9.4-9.94c0.96-1.05,2.59-1.11,3.63-0.15
			s1.11,2.59,0.15,3.63c-3.11,3.39-6.31,6.77-9.5,10.05C868.16,852.92,867.5,853.18,866.83,853.18z M166.89,843.03
			c-0.69,0-1.39-0.28-1.89-0.83c-3.1-3.38-6.2-6.84-9.2-10.31c-0.93-1.07-0.81-2.7,0.26-3.63c1.07-0.93,2.69-0.82,3.63,0.26
			c2.97,3.43,6.03,6.86,9.1,10.2c0.96,1.05,0.89,2.67-0.15,3.63C168.13,842.81,167.51,843.03,166.89,843.03z M885.44,832.93
			c-0.6,0-1.2-0.21-1.68-0.63c-1.07-0.93-1.19-2.55-0.26-3.63c2.99-3.44,5.95-6.96,8.82-10.46c0.9-1.1,2.52-1.26,3.62-0.36
			c1.1,0.9,1.26,2.52,0.36,3.62c-2.9,3.54-5.9,7.09-8.92,10.57C886.87,832.63,886.15,832.93,885.44,832.93z M148.88,822.27
			c-0.74,0-1.48-0.32-1.99-0.94c-2.89-3.53-5.79-7.17-8.6-10.81c-0.87-1.12-0.66-2.74,0.46-3.61c1.12-0.87,2.74-0.66,3.61,0.46
			c2.78,3.6,5.64,7.2,8.51,10.7c0.9,1.1,0.74,2.72-0.36,3.62C150.03,822.08,149.45,822.27,148.88,822.27z M902.87,811.65
			c-0.55,0-1.1-0.17-1.57-0.54c-1.12-0.87-1.33-2.48-0.46-3.61c2.78-3.59,5.54-7.28,8.22-10.95c0.83-1.15,2.44-1.4,3.59-0.56
			c1.15,0.84,1.4,2.44,0.56,3.59c-2.7,3.71-5.49,7.43-8.3,11.06C904.4,811.3,903.64,811.65,902.87,811.65z M132.09,800.53
			c-0.8,0-1.58-0.37-2.08-1.06c-2.7-3.71-5.38-7.51-7.97-11.28c-0.8-1.17-0.5-2.77,0.67-3.57c1.17-0.8,2.77-0.5,3.57,0.67
			c2.56,3.73,5.21,7.48,7.88,11.16c0.84,1.15,0.58,2.76-0.57,3.59C133.14,800.37,132.61,800.53,132.09,800.53z M919.08,789.4
			c-0.5,0-1.01-0.15-1.45-0.45c-1.17-0.8-1.47-2.4-0.67-3.57c2.57-3.75,5.12-7.59,7.58-11.4c0.77-1.2,2.36-1.54,3.55-0.77
			c1.19,0.77,1.54,2.36,0.77,3.55c-2.48,3.85-5.06,7.73-7.66,11.52C920.7,789.01,919.9,789.4,919.08,789.4z M116.57,777.88
			c-0.85,0-1.67-0.42-2.16-1.18c-2.48-3.84-4.94-7.78-7.31-11.71c-0.73-1.21-0.34-2.8,0.87-3.53c1.21-0.73,2.79-0.34,3.53,0.87
			c2.35,3.88,4.78,7.78,7.23,11.58c0.77,1.19,0.43,2.78-0.77,3.55C117.53,777.75,117.04,777.88,116.57,777.88z M933.99,766.26
			c-0.45,0-0.91-0.12-1.33-0.37c-1.22-0.73-1.6-2.32-0.87-3.53c2.35-3.88,4.68-7.86,6.92-11.82c0.7-1.23,2.27-1.67,3.5-0.97
			c1.24,0.7,1.67,2.27,0.97,3.5c-2.27,4-4.62,8.02-6.99,11.95C935.71,765.82,934.86,766.26,933.99,766.26z M102.36,754.39
			c-0.9,0-1.77-0.47-2.24-1.3c-2.26-3.99-4.49-8.06-6.63-12.1c-0.66-1.25-0.19-2.81,1.07-3.47c1.25-0.67,2.81-0.19,3.47,1.07
			c2.12,4,4.32,8.02,6.56,11.97c0.7,1.24,0.27,2.8-0.97,3.5C103.23,754.29,102.79,754.39,102.36,754.39z M947.56,742.3
			c-0.4,0-0.82-0.1-1.2-0.3c-1.25-0.66-1.73-2.22-1.07-3.47c2.12-4.02,4.22-8.12,6.23-12.2c0.63-1.27,2.17-1.8,3.44-1.17
			c1.27,0.63,1.8,2.17,1.17,3.44c-2.03,4.13-4.15,8.28-6.3,12.34C949.38,741.8,948.49,742.3,947.56,742.3z M89.53,730.15
			c-0.95,0-1.86-0.53-2.31-1.43c-2.02-4.1-4.01-8.29-5.92-12.45c-0.59-1.29-0.02-2.82,1.27-3.41c1.29-0.59,2.82-0.02,3.41,1.27
			c1.89,4.12,3.86,8.26,5.86,12.32c0.63,1.27,0.11,2.81-1.17,3.44C90.3,730.06,89.91,730.15,89.53,730.15z M959.75,717.58
			c-0.36,0-0.72-0.08-1.07-0.23c-1.29-0.59-1.86-2.12-1.27-3.41c1.89-4.13,3.75-8.35,5.53-12.55c0.55-1.31,2.07-1.91,3.37-1.37
			c1.31,0.55,1.92,2.06,1.37,3.37c-1.8,4.24-3.67,8.51-5.59,12.68C961.66,717.02,960.72,717.58,959.75,717.58z M78.11,705.22
			c-1,0-1.95-0.59-2.37-1.57c-1.78-4.21-3.53-8.5-5.2-12.76c-0.52-1.32,0.14-2.81,1.46-3.33c1.33-0.52,2.81,0.14,3.33,1.46
			c1.65,4.21,3.38,8.46,5.14,12.62c0.55,1.31-0.06,2.82-1.36,3.37C78.79,705.16,78.45,705.22,78.11,705.22z M970.49,692.19
			c-0.31,0-0.63-0.06-0.93-0.18c-1.32-0.52-1.98-2.01-1.46-3.33c1.65-4.23,3.26-8.56,4.8-12.85c0.48-1.34,1.95-2.03,3.28-1.56
			c1.34,0.48,2.03,1.95,1.56,3.28c-1.55,4.34-3.18,8.71-4.85,12.99C972.49,691.57,971.52,692.19,970.49,692.19z M68.12,679.65
			c-1.06,0-2.04-0.66-2.42-1.71c-1.54-4.31-3.05-8.71-4.47-13.08c-0.44-1.35,0.3-2.8,1.65-3.24c1.34-0.44,2.8,0.3,3.24,1.65
			c1.41,4.32,2.9,8.68,4.42,12.94c0.48,1.34-0.22,2.81-1.55,3.29C68.7,679.61,68.41,679.65,68.12,679.65z M979.77,666.21
			c-0.26,0-0.53-0.04-0.79-0.13c-1.35-0.44-2.09-1.89-1.65-3.24c1.4-4.31,2.76-8.71,4.03-13.07c0.4-1.36,1.82-2.15,3.19-1.74
			c1.36,0.4,2.14,1.83,1.74,3.19c-1.29,4.41-2.66,8.85-4.08,13.21C981.86,665.52,980.85,666.21,979.77,666.21z M59.61,653.51
			c-1.11,0-2.14-0.73-2.47-1.85c-1.29-4.4-2.54-8.88-3.71-13.32c-0.36-1.37,0.46-2.78,1.83-3.14c1.38-0.36,2.78,0.46,3.14,1.83
			c1.15,4.39,2.39,8.82,3.67,13.17c0.4,1.36-0.38,2.79-1.74,3.19C60.09,653.47,59.85,653.51,59.61,653.51z M987.5,639.82
			c-0.22,0-0.44-0.03-0.65-0.08c-1.37-0.36-2.19-1.77-1.83-3.14c1.15-4.4,2.26-8.87,3.28-13.28c0.32-1.38,1.7-2.25,3.08-1.92
			c1.38,0.32,2.24,1.7,1.92,3.08c-1.03,4.46-2.15,8.97-3.31,13.42C989.68,639.06,988.64,639.82,987.5,639.82z M52.61,626.92
			c-1.17,0-2.22-0.8-2.5-1.99c-1.04-4.46-2.03-9.01-2.94-13.51c-0.28-1.39,0.62-2.75,2.01-3.03c1.39-0.28,2.75,0.62,3.03,2.01
			c0.9,4.45,1.88,8.95,2.91,13.36c0.32,1.38-0.54,2.76-1.92,3.09C53,626.89,52.81,626.92,52.61,626.92z M993.7,613.03
			c-0.17,0-0.34-0.02-0.51-0.05c-1.39-0.28-2.29-1.64-2.01-3.03c0.9-4.45,1.74-8.97,2.51-13.44c0.24-1.4,1.57-2.34,2.97-2.1
			c1.4,0.24,2.34,1.57,2.1,2.97c-0.78,4.52-1.63,9.1-2.54,13.59C995.97,612.19,994.9,613.03,993.7,613.03z M47.16,599.97
			c-1.23,0-2.31-0.88-2.53-2.13c-0.78-4.5-1.5-9.09-2.16-13.65c-0.2-1.4,0.77-2.71,2.18-2.91c1.41-0.19,2.71,0.77,2.91,2.18
			c0.65,4.51,1.37,9.06,2.14,13.51c0.24,1.4-0.7,2.73-2.1,2.97C47.45,599.95,47.3,599.97,47.16,599.97z M998.36,585.93
			c-0.12,0-0.24-0.01-0.37-0.03c-1.41-0.2-2.38-1.5-2.18-2.91c0.64-4.48,1.22-9.05,1.74-13.57c0.16-1.41,1.44-2.43,2.84-2.26
			c1.41,0.16,2.42,1.43,2.26,2.84c-0.52,4.57-1.11,9.18-1.75,13.71C1000.72,585.01,999.62,585.93,998.36,585.93z M43.25,572.75
			c-1.29,0-2.4-0.97-2.55-2.28c-0.52-4.53-0.98-9.16-1.38-13.75c-0.12-1.41,0.93-2.66,2.34-2.78c1.4-0.12,2.66,0.93,2.78,2.34
			c0.39,4.54,0.85,9.12,1.36,13.61c0.16,1.41-0.85,2.68-2.26,2.85C43.45,572.74,43.35,572.75,43.25,572.75z M1001.46,558.61
			c-0.07,0-0.15,0-0.22-0.01c-1.41-0.12-2.46-1.36-2.34-2.78c0.38-4.51,0.71-9.1,0.96-13.64c0.08-1.42,1.29-2.49,2.71-2.42
			c1.42,0.08,2.5,1.29,2.42,2.71c-0.26,4.59-0.59,9.23-0.97,13.79C1003.9,557.6,1002.78,558.61,1001.46,558.61z M40.9,545.35
			c-1.35,0-2.49-1.06-2.56-2.42c-0.26-4.57-0.46-9.22-0.59-13.81c-0.04-1.42,1.08-2.6,2.5-2.64c1.41-0.04,2.6,1.08,2.64,2.5
			c0.13,4.54,0.33,9.14,0.59,13.67c0.08,1.42-1,2.63-2.42,2.71C41,545.35,40.95,545.35,40.9,545.35z M1003,531.16
			c-0.03,0-0.05,0-0.07,0c-1.42-0.04-2.54-1.22-2.5-2.64c0.13-4.53,0.19-9.13,0.19-13.68l0-0.9c0-1.42,1.14-2.57,2.56-2.58
			c1.46,0.03,2.57,1.14,2.58,2.56l0,0.91c0,4.59-0.07,9.24-0.19,13.82C1005.53,530.06,1004.39,531.16,1003,531.16z M40.11,517.87
			c-1.42,0-2.57-1.15-2.57-2.57v-0.46c0-4.44,0.06-8.93,0.18-13.36c0.04-1.42,1.3-2.53,2.64-2.5c1.42,0.04,2.54,1.22,2.5,2.64
			c-0.12,4.38-0.18,8.83-0.18,13.22v0.46C42.68,516.72,41.53,517.87,40.11,517.87z M1002.97,502.76c-1.38,0-2.53-1.1-2.57-2.49
			c-0.14-4.54-0.34-9.14-0.6-13.67c-0.08-1.42,1-2.63,2.42-2.72c1.41-0.07,2.63,1,2.72,2.42c0.27,4.57,0.47,9.22,0.61,13.81
			c0.04,1.42-1.07,2.6-2.49,2.65C1003.03,502.76,1003,502.76,1002.97,502.76z M40.86,490.38c-0.05,0-0.1,0-0.14,0
			c-1.42-0.08-2.5-1.29-2.42-2.71c0.25-4.58,0.57-9.22,0.96-13.79c0.12-1.42,1.36-2.48,2.78-2.35c1.41,0.12,2.47,1.36,2.35,2.78
			c-0.38,4.52-0.7,9.11-0.95,13.64C43.35,489.32,42.21,490.38,40.86,490.38z M1001.38,475.31c-1.32,0-2.44-1.01-2.56-2.35
			c-0.39-4.52-0.85-9.09-1.37-13.61c-0.16-1.41,0.85-2.69,2.26-2.85c1.4-0.16,2.68,0.85,2.85,2.26c0.53,4.56,0.99,9.19,1.39,13.75
			c0.12,1.41-0.92,2.66-2.34,2.78C1001.53,475.31,1001.45,475.31,1001.38,475.31z M43.16,462.98c-0.1,0-0.19-0.01-0.29-0.02
			c-1.41-0.16-2.42-1.43-2.27-2.84c0.51-4.57,1.1-9.18,1.74-13.71c0.2-1.4,1.49-2.38,2.91-2.18c1.4,0.2,2.38,1.5,2.18,2.91
			c-0.64,4.48-1.21,9.05-1.72,13.57C45.56,462.01,44.45,462.98,43.16,462.98z M998.23,448c-1.26,0-2.36-0.92-2.54-2.2
			c-0.65-4.49-1.37-9.03-2.15-13.51c-0.24-1.4,0.69-2.73,2.09-2.97c1.4-0.24,2.73,0.69,2.97,2.09c0.79,4.52,1.52,9.12,2.17,13.65
			c0.2,1.4-0.77,2.71-2.18,2.91C998.47,447.99,998.35,448,998.23,448z M47.01,435.76c-0.14,0-0.29-0.01-0.44-0.04
			c-1.4-0.24-2.34-1.57-2.1-2.97c0.77-4.52,1.62-9.1,2.52-13.59c0.28-1.39,1.63-2.29,3.03-2.01c1.39,0.28,2.29,1.63,2.01,3.03
			c-0.89,4.45-1.73,8.97-2.5,13.45C49.32,434.87,48.24,435.76,47.01,435.76z M993.52,420.91c-1.2,0-2.27-0.84-2.52-2.06
			c-0.91-4.45-1.89-8.95-2.92-13.36c-0.32-1.38,0.54-2.77,1.92-3.09c1.38-0.31,2.77,0.54,3.09,1.92c1.04,4.46,2.03,9,2.95,13.51
			c0.28,1.39-0.62,2.75-2.01,3.03C993.86,420.89,993.69,420.91,993.52,420.91z M52.41,408.8c-0.19,0-0.39-0.02-0.58-0.07
			c-1.38-0.32-2.25-1.7-1.93-3.08c1.04-4.49,2.15-9.01,3.3-13.43c0.36-1.37,1.76-2.2,3.14-1.84c1.37,0.36,2.2,1.76,1.84,3.14
			c-1.14,4.37-2.24,8.84-3.26,13.28C54.64,407.99,53.58,408.8,52.41,408.8z M987.27,394.13c-1.14,0-2.18-0.76-2.48-1.92
			c-1.16-4.39-2.4-8.82-3.68-13.17c-0.4-1.36,0.38-2.79,1.74-3.19c1.36-0.41,2.79,0.38,3.19,1.74c1.3,4.4,2.55,8.87,3.72,13.31
			c0.36,1.37-0.46,2.78-1.83,3.14C987.7,394.1,987.48,394.13,987.27,394.13z M59.36,382.19c-0.24,0-0.48-0.03-0.72-0.1
			c-1.36-0.4-2.14-1.82-1.75-3.19c1.29-4.42,2.66-8.86,4.07-13.21c0.44-1.35,1.89-2.09,3.24-1.65c1.35,0.44,2.09,1.89,1.65,3.24
			c-1.39,4.31-2.75,8.7-4.02,13.07C61.49,381.46,60.47,382.19,59.36,382.19z M979.48,367.76c-1.08,0-2.09-0.69-2.44-1.77
			c-1.41-4.31-2.9-8.67-4.43-12.94c-0.48-1.34,0.22-2.81,1.55-3.29c1.33-0.48,2.81,0.21,3.29,1.55c1.55,4.32,3.06,8.72,4.48,13.08
			c0.44,1.35-0.3,2.8-1.65,3.24C980.02,367.72,979.75,367.76,979.48,367.76z M67.83,355.99c-0.29,0-0.58-0.05-0.86-0.15
			c-1.34-0.48-2.04-1.95-1.56-3.28c1.55-4.35,3.17-8.72,4.84-13c0.51-1.32,2-1.98,3.33-1.46c1.32,0.51,1.98,2,1.46,3.33
			c-1.64,4.23-3.25,8.56-4.78,12.86C69.88,355.33,68.89,355.99,67.83,355.99z M970.2,341.87c-1.03,0-2-0.62-2.39-1.63
			c-1.64-4.2-3.38-8.45-5.15-12.62c-0.56-1.31,0.05-2.82,1.36-3.37c1.31-0.56,2.82,0.05,3.37,1.36c1.79,4.22,3.55,8.51,5.21,12.76
			c0.52,1.32-0.13,2.81-1.46,3.33C970.83,341.82,970.51,341.87,970.2,341.87z M77.82,330.28c-0.33,0-0.67-0.07-1-0.2
			c-1.31-0.55-1.92-2.06-1.37-3.37c1.78-4.23,3.66-8.5,5.57-12.69c0.59-1.29,2.11-1.86,3.41-1.27c1.29,0.59,1.86,2.11,1.27,3.41
			c-1.89,4.15-3.75,8.37-5.51,12.55C79.78,329.69,78.82,330.28,77.82,330.28z M959.48,316.65c-0.97,0-1.9-0.56-2.34-1.5
			c-1.89-4.12-3.87-8.26-5.87-12.31c-0.63-1.27-0.11-2.81,1.16-3.44c1.27-0.63,2.81-0.11,3.44,1.16c2.02,4.09,4.02,8.28,5.93,12.44
			c0.59,1.29,0.03,2.82-1.26,3.41C960.2,316.57,959.84,316.65,959.48,316.65z M89.27,305.21c-0.38,0-0.77-0.09-1.13-0.26
			c-1.27-0.63-1.8-2.17-1.17-3.44c2.03-4.12,4.14-8.27,6.29-12.34c0.66-1.26,2.22-1.74,3.47-1.07c1.26,0.66,1.74,2.22,1.07,3.47
			c-2.13,4.03-4.22,8.13-6.22,12.21C91.13,304.68,90.22,305.21,89.27,305.21z M947.32,292.07c-0.92,0-1.81-0.5-2.27-1.37
			c-2.12-4-4.33-8.03-6.57-11.96c-0.7-1.24-0.27-2.8,0.97-3.51c1.23-0.7,2.8-0.27,3.51,0.97c2.26,3.98,4.49,8.04,6.64,12.09
			c0.67,1.25,0.19,2.81-1.07,3.48C948.14,291.97,947.73,292.07,947.32,292.07z M102.13,280.84c-0.43,0-0.86-0.11-1.26-0.33
			c-1.24-0.7-1.67-2.27-0.97-3.5c2.26-4,4.61-8.02,6.98-11.96c0.73-1.22,2.31-1.61,3.53-0.87c1.22,0.73,1.61,2.31,0.87,3.53
			c-2.35,3.9-4.68,7.87-6.91,11.83C103.89,280.37,103.02,280.84,102.13,280.84z M933.78,268.2c-0.87,0-1.72-0.44-2.2-1.24
			c-2.34-3.87-4.78-7.76-7.24-11.57c-0.77-1.19-0.43-2.78,0.77-3.55c1.19-0.77,2.78-0.43,3.55,0.77c2.49,3.85,4.95,7.79,7.32,11.7
			c0.74,1.21,0.35,2.79-0.87,3.53C934.69,268.08,934.23,268.2,933.78,268.2z M116.36,257.27c-0.48,0-0.96-0.13-1.39-0.41
			c-1.19-0.77-1.54-2.36-0.77-3.55c2.48-3.85,5.05-7.73,7.65-11.53c0.8-1.17,2.4-1.47,3.57-0.67c1.17,0.8,1.47,2.4,0.67,3.57
			c-2.57,3.76-5.12,7.6-7.57,11.41C118.03,256.85,117.2,257.27,116.36,257.27z M918.89,245.14c-0.82,0-1.62-0.39-2.12-1.12
			c-2.57-3.75-5.23-7.5-7.89-11.15c-0.84-1.15-0.58-2.76,0.56-3.59c1.15-0.84,2.75-0.59,3.59,0.56c2.69,3.69,5.38,7.48,7.98,11.27
			c0.8,1.17,0.51,2.77-0.66,3.57C919.9,244.99,919.39,245.14,918.89,245.14z M131.9,234.55c-0.52,0-1.05-0.16-1.51-0.49
			c-1.15-0.84-1.4-2.44-0.57-3.59c2.69-3.71,5.48-7.43,8.29-11.07c0.87-1.12,2.48-1.33,3.6-0.47c1.12,0.87,1.33,2.48,0.47,3.6
			c-2.78,3.6-5.54,7.29-8.21,10.96C133.48,234.18,132.69,234.55,131.9,234.55z M902.7,222.95c-0.77,0-1.53-0.34-2.03-1
			c-2.78-3.6-5.65-7.19-8.52-10.69c-0.9-1.1-0.74-2.72,0.36-3.62c1.1-0.9,2.72-0.74,3.62,0.36c2.9,3.53,5.79,7.17,8.61,10.8
			c0.87,1.12,0.66,2.74-0.46,3.61C903.81,222.77,903.25,222.95,902.7,222.95z M148.71,212.76c-0.57,0-1.15-0.19-1.63-0.58
			c-1.1-0.9-1.26-2.52-0.36-3.62c2.9-3.55,5.9-7.11,8.91-10.58c0.93-1.07,2.55-1.19,3.63-0.26c1.07,0.93,1.19,2.55,0.26,3.63
			c-2.97,3.43-5.94,6.95-8.81,10.47C150.19,212.44,149.45,212.76,148.71,212.76z M885.27,201.71c-0.72,0-1.43-0.3-1.94-0.88
			c-2.98-3.43-6.05-6.86-9.11-10.19c-0.96-1.05-0.89-2.67,0.15-3.63c1.04-0.96,2.67-0.89,3.63,0.15c3.1,3.37,6.2,6.83,9.21,10.3
			c0.93,1.07,0.82,2.7-0.25,3.63C886.47,201.5,885.87,201.71,885.27,201.71z M166.72,191.97c-0.62,0-1.24-0.22-1.74-0.68
			c-1.05-0.96-1.12-2.59-0.16-3.63c3.1-3.37,6.29-6.76,9.49-10.05c0.99-1.02,2.62-1.04,3.63-0.05c1.02,0.99,1.04,2.62,0.05,3.63
			c-3.17,3.26-6.33,6.61-9.39,9.95C168.11,191.69,167.42,191.97,166.72,191.97z M866.66,181.48c-0.67,0-1.34-0.26-1.84-0.78
			c-3.17-3.26-6.43-6.51-9.68-9.66c-1.02-0.99-1.04-2.62-0.06-3.63c0.99-1.02,2.62-1.04,3.63-0.06c3.29,3.19,6.58,6.47,9.78,9.77
			c0.99,1.02,0.97,2.64-0.05,3.63C867.96,181.24,867.31,181.48,866.66,181.48z M185.88,172.25c-0.67,0-1.34-0.26-1.84-0.78
			c-0.99-1.02-0.97-2.65,0.05-3.63c3.29-3.2,6.66-6.39,10.04-9.5c1.05-0.96,2.67-0.89,3.63,0.15c0.96,1.05,0.89,2.67-0.15,3.63
			c-3.34,3.07-6.68,6.23-9.93,9.4C187.17,172,186.52,172.25,185.88,172.25z M846.93,162.33c-0.62,0-1.24-0.22-1.74-0.68
			c-3.35-3.07-6.79-6.13-10.22-9.1c-1.07-0.93-1.19-2.55-0.26-3.63c0.93-1.07,2.55-1.19,3.63-0.26c3.47,3,6.94,6.1,10.32,9.2
			c1.05,0.96,1.12,2.59,0.16,3.63C848.31,162.05,847.62,162.33,846.93,162.33z M206.12,153.64c-0.72,0-1.43-0.3-1.94-0.89
			c-0.93-1.07-0.82-2.7,0.26-3.63c3.47-3.01,7.02-6.01,10.56-8.91c1.1-0.9,2.72-0.74,3.62,0.36c0.9,1.1,0.74,2.72-0.36,3.62
			c-3.5,2.87-7.02,5.84-10.45,8.81C207.31,153.44,206.71,153.64,206.12,153.64z M826.13,144.33c-0.57,0-1.15-0.19-1.62-0.58
			c-3.52-2.87-7.12-5.74-10.72-8.51c-1.12-0.87-1.33-2.48-0.47-3.6c0.87-1.12,2.48-1.33,3.6-0.47c3.63,2.8,7.28,5.69,10.84,8.6
			c1.1,0.9,1.26,2.52,0.36,3.62C827.61,144.01,826.87,144.33,826.13,144.33z M227.37,136.23c-0.77,0-1.53-0.34-2.04-1
			c-0.87-1.12-0.66-2.74,0.46-3.61c3.62-2.8,7.34-5.59,11.04-8.29c1.15-0.84,2.76-0.58,3.59,0.56c0.84,1.15,0.58,2.76-0.56,3.59
			c-3.67,2.67-7.34,5.43-10.93,8.2C228.47,136.05,227.92,136.23,227.37,136.23z M804.33,127.53c-0.52,0-1.05-0.16-1.51-0.49
			c-3.68-2.67-7.45-5.33-11.19-7.89c-1.17-0.8-1.47-2.4-0.67-3.57c0.8-1.17,2.4-1.47,3.57-0.67c3.79,2.59,7.59,5.27,11.31,7.97
			c1.15,0.83,1.4,2.44,0.57,3.59C805.91,127.16,805.13,127.53,804.33,127.53z M249.57,120.05c-0.82,0-1.62-0.39-2.12-1.12
			c-0.8-1.17-0.51-2.77,0.67-3.57c3.78-2.59,7.64-5.16,11.49-7.65c1.19-0.77,2.78-0.43,3.55,0.77c0.77,1.19,0.43,2.78-0.77,3.55
			c-3.81,2.45-7.63,5-11.37,7.56C250.57,119.91,250.07,120.05,249.57,120.05z M781.61,112c-0.48,0-0.96-0.13-1.39-0.41
			c-3.82-2.45-7.73-4.89-11.63-7.24c-1.22-0.73-1.61-2.31-0.87-3.53c0.73-1.22,2.31-1.61,3.53-0.87c3.94,2.38,7.89,4.84,11.75,7.32
			c1.19,0.77,1.54,2.36,0.77,3.55C783.28,111.58,782.45,112,781.61,112z M272.64,105.17c-0.87,0-1.72-0.44-2.2-1.24
			c-0.74-1.21-0.35-2.79,0.87-3.53c3.9-2.36,7.91-4.71,11.9-6.98c1.24-0.7,2.81-0.27,3.5,0.97c0.7,1.23,0.27,2.8-0.97,3.5
			c-3.95,2.24-7.91,4.56-11.78,6.9C273.55,105.05,273.09,105.17,272.64,105.17z M758.02,97.78c-0.43,0-0.86-0.11-1.26-0.33
			c-3.96-2.24-8.01-4.44-12.03-6.56c-1.26-0.66-1.74-2.22-1.07-3.47c0.66-1.26,2.21-1.74,3.47-1.07c4.06,2.14,8.15,4.37,12.16,6.63
			c1.24,0.7,1.67,2.26,0.97,3.5C759.79,97.31,758.92,97.78,758.02,97.78z M296.51,91.64c-0.92,0-1.81-0.5-2.27-1.37
			c-0.67-1.25-0.19-2.81,1.07-3.48c4.04-2.14,8.17-4.25,12.28-6.28c1.27-0.63,2.81-0.11,3.44,1.17c0.63,1.27,0.11,2.81-1.17,3.44
			c-4.06,2.01-8.15,4.1-12.14,6.22C297.32,91.54,296.91,91.64,296.51,91.64z M733.65,84.93c-0.38,0-0.77-0.09-1.13-0.26
			c-4.08-2-8.25-3.98-12.39-5.86c-1.29-0.59-1.86-2.11-1.27-3.4c0.59-1.29,2.12-1.86,3.4-1.27c4.19,1.91,8.4,3.9,12.52,5.93
			c1.27,0.63,1.8,2.17,1.17,3.44C735.52,84.4,734.6,84.93,733.65,84.93z M321.1,79.49c-0.97,0-1.91-0.56-2.34-1.5
			c-0.59-1.29-0.03-2.82,1.26-3.41c4.16-1.91,8.4-3.78,12.61-5.57c1.31-0.55,2.82,0.05,3.37,1.36c0.55,1.31-0.06,2.82-1.36,3.37
			c-4.17,1.77-8.36,3.62-12.47,5.51C321.82,79.42,321.45,79.49,321.1,79.49z M708.58,73.5c-0.33,0-0.67-0.07-1-0.2
			c-4.19-1.77-8.47-3.5-12.71-5.15c-1.32-0.51-1.98-2-1.47-3.33c0.51-1.32,2-1.98,3.33-1.47c4.29,1.66,8.61,3.41,12.85,5.2
			c1.31,0.55,1.92,2.06,1.37,3.37C710.53,72.9,709.58,73.5,708.58,73.5z M346.32,68.78c-1.03,0-2-0.62-2.39-1.64
			c-0.52-1.32,0.14-2.81,1.46-3.33c4.27-1.67,8.63-3.3,12.95-4.85c1.34-0.48,2.81,0.22,3.29,1.55c0.48,1.34-0.22,2.81-1.55,3.29
			c-4.27,1.53-8.58,3.14-12.81,4.8C346.95,68.73,346.63,68.78,346.32,68.78z M682.87,63.52c-0.29,0-0.58-0.05-0.86-0.15
			c-4.29-1.52-8.66-3.01-12.99-4.41c-1.35-0.44-2.09-1.89-1.66-3.24c0.44-1.35,1.88-2.1,3.24-1.66c4.38,1.41,8.8,2.91,13.14,4.45
			c1.34,0.48,2.04,1.95,1.56,3.28C684.91,62.86,683.92,63.52,682.87,63.52z M372.21,59.51c-1.08,0-2.09-0.69-2.44-1.77
			c-0.44-1.35,0.3-2.8,1.65-3.24c4.37-1.43,8.81-2.8,13.2-4.1c1.36-0.4,2.79,0.38,3.19,1.74c0.4,1.36-0.38,2.79-1.74,3.19
			c-4.35,1.28-8.74,2.64-13.06,4.05C372.74,59.47,372.47,59.51,372.21,59.51z M656.66,55.05c-0.24,0-0.48-0.03-0.72-0.1
			c-4.33-1.26-8.77-2.49-13.18-3.64c-1.37-0.36-2.2-1.76-1.84-3.14c0.36-1.37,1.76-2.19,3.14-1.84c4.46,1.16,8.95,2.4,13.33,3.68
			c1.36,0.4,2.15,1.82,1.75,3.19C658.8,54.32,657.77,55.05,656.66,55.05z M398.58,51.74c-1.14,0-2.18-0.76-2.48-1.92
			c-0.36-1.37,0.46-2.78,1.83-3.14c4.44-1.17,8.95-2.29,13.42-3.33c1.38-0.33,2.76,0.54,3.09,1.92c0.32,1.38-0.54,2.77-1.92,3.09
			c-4.42,1.03-8.88,2.14-13.27,3.3C399.02,51.71,398.8,51.74,398.58,51.74z M630.05,48.12c-0.19,0-0.38-0.02-0.58-0.07
			c-4.44-1.02-8.94-1.99-13.37-2.87c-1.39-0.28-2.3-1.63-2.02-3.02c0.28-1.39,1.63-2.3,3.02-2.02c4.48,0.9,9.03,1.87,13.52,2.9
			c1.38,0.32,2.25,1.7,1.93,3.08C632.28,47.31,631.22,48.12,630.05,48.12z M425.36,45.5c-1.2,0-2.27-0.84-2.52-2.06
			c-0.28-1.39,0.62-2.75,2.01-3.03c4.5-0.91,9.07-1.77,13.59-2.55c1.4-0.24,2.73,0.69,2.97,2.09c0.24,1.4-0.7,2.73-2.09,2.97
			c-4.46,0.77-8.98,1.62-13.44,2.53C425.7,45.48,425.53,45.5,425.36,45.5z M603.09,42.73c-0.14,0-0.29-0.01-0.43-0.04
			c-4.48-0.76-9.03-1.47-13.51-2.1c-1.41-0.2-2.38-1.5-2.19-2.9c0.2-1.41,1.5-2.38,2.9-2.19c4.54,0.64,9.13,1.36,13.66,2.13
			c1.4,0.24,2.34,1.57,2.1,2.97C605.41,41.84,604.32,42.73,603.09,42.73z M452.45,40.8c-1.26,0-2.36-0.92-2.54-2.21
			c-0.2-1.4,0.77-2.71,2.18-2.91c4.54-0.65,9.15-1.25,13.71-1.77c1.41-0.17,2.69,0.85,2.85,2.26c0.16,1.41-0.85,2.69-2.26,2.85
			c-4.51,0.52-9.07,1.11-13.56,1.75C452.7,40.8,452.57,40.8,452.45,40.8z M575.86,38.89c-0.1,0-0.19-0.01-0.29-0.02
			c-4.52-0.51-9.09-0.95-13.61-1.33c-1.41-0.12-2.47-1.36-2.35-2.77c0.12-1.41,1.36-2.49,2.77-2.35c4.57,0.38,9.19,0.83,13.76,1.34
			c1.41,0.16,2.43,1.43,2.27,2.84C578.27,37.92,577.15,38.89,575.86,38.89z M479.77,37.67c-1.32,0-2.44-1.01-2.56-2.35
			c-0.12-1.41,0.93-2.66,2.34-2.78c4.56-0.39,9.19-0.73,13.79-0.99c1.41-0.08,2.63,1,2.71,2.42c0.08,1.42-1,2.63-2.42,2.71
			c-4.54,0.26-9.13,0.59-13.64,0.98C479.92,37.66,479.84,37.67,479.77,37.67z M548.46,36.6c-0.05,0-0.1,0-0.14,0
			c-4.52-0.25-9.11-0.44-13.66-0.56c-1.42-0.04-2.54-1.22-2.5-2.64c0.04-1.42,1.16-2.59,2.64-2.5c4.6,0.12,9.25,0.31,13.81,0.56
			c1.42,0.08,2.5,1.29,2.42,2.71C550.95,35.54,549.81,36.6,548.46,36.6z M507.22,36.08c-1.38,0-2.53-1.1-2.57-2.49
			c-0.04-1.42,1.08-2.6,2.49-2.65c4.59-0.14,9.24-0.21,13.82-0.21c0,0,0,0,0,0c1.42,0,2.57,1.15,2.57,2.57
			c0,1.42-1.15,2.57-2.57,2.57c-4.53,0.01-9.13,0.08-13.68,0.21C507.27,36.08,507.25,36.08,507.22,36.08z"/>
	</g>
</g>
</svg>
